<svg width="1388" height="512" viewBox="0 0 1388 512" fill="none" xmlns="http://www.w3.org/2000/svg">
<path d="M86 250.5C86 154.679 163.679 77 259.5 77H797C908.562 77 999 167.438 999 279V279C999 390.562 908.562 481 797 481H259.5C163.679 481 86 403.321 86 307.5V250.5Z" fill="#E5E5E5"/>
<path fill-rule="evenodd" clip-rule="evenodd" d="M217 0C97.1542 0 0 97.1542 0 217V295C0 414.846 97.1542 512 217 512H1388V474H281C161.706 474 65 377.294 65 258V240C65 120.707 161.706 24 281 24H1388V0H217Z" fill="#F5DF4D"/>
</svg>
