<svg width="111" height="23" viewBox="0 0 111 23" fill="none" xmlns="http://www.w3.org/2000/svg">
<rect width="111" height="23" fill="#E5E5E5"/>
<path d="M0 5C0 2.23858 2.23858 0 5 0H106C108.761 0 111 2.23858 111 5V18C111 20.7614 108.761 23 106 23H5C2.23857 23 0 20.7614 0 18V5Z" fill="#808080"/>
<path d="M16.8717 7.624H18.6477V8.488H16.8717V7.624ZM18.6477 10.084H16.8717V9.196H18.6477V10.084ZM16.0077 10.084H13.4757V10.804H16.0077V11.692H13.4157V12.376H16.0077V13.324H12.8637V14.056H16.0077V15.328H16.8717V14.056H20.1477V13.324H16.8717V12.376H19.6317V11.692H16.8717V10.804H19.5117V9.196H20.4117V8.488H19.5117V6.916H16.8717V6.052H16.0077V6.916H13.5597V7.624H16.0077V8.488H12.7077V9.196H16.0077V10.084ZM12.4797 10.096L12.3117 10.12H11.0757C11.6277 8.98 12.2157 7.768 12.5997 6.856L11.9877 6.676L11.8437 6.724H9.46773V7.516H11.3997C10.9197 8.572 10.2237 10.024 9.62373 11.152L10.4397 11.38L10.6797 10.912H12.0717C11.9277 11.968 11.6997 12.88 11.3877 13.648C11.0637 13.168 10.7997 12.58 10.5837 11.86L9.88773 12.124C10.1877 13.096 10.5597 13.864 11.0037 14.464C10.5717 15.268 10.0197 15.88 9.37173 16.312C9.57573 16.432 9.91173 16.756 10.0437 16.936C10.6557 16.504 11.1837 15.916 11.6157 15.148C12.8757 16.312 14.6037 16.6 16.7757 16.6H20.1237C20.1837 16.336 20.3517 15.94 20.4957 15.724C19.8717 15.736 17.2917 15.736 16.7997 15.736C14.8077 15.736 13.1757 15.484 12.0117 14.38C12.4797 13.288 12.8157 11.908 12.9957 10.228L12.4797 10.096ZM31.9317 8.308H27.3597V5.968H26.4477V8.308H21.9957V9.172H31.9317V8.308ZM25.6077 14.704C25.5117 13.36 25.0677 11.38 24.4317 9.808L23.6037 10.024C24.1917 11.572 24.6477 13.6 24.7077 14.92L25.6077 14.704ZM28.5837 15.52C29.1597 14.008 29.8317 11.752 30.2877 9.928L29.2797 9.736C28.9317 11.5 28.2597 13.984 27.6597 15.52H21.5997V16.396H32.2797V15.52H28.5837ZM35.125 16H34V7.46875H35.125V16ZM37.1875 16V7.46875H39.5957C40.3379 7.46875 40.9941 7.63281 41.5645 7.96094C42.1348 8.28906 42.5742 8.75586 42.8828 9.36133C43.1953 9.9668 43.3535 10.6621 43.3574 11.4473V11.9922C43.3574 12.7969 43.2012 13.502 42.8887 14.1074C42.5801 14.7129 42.1367 15.1777 41.5586 15.502C40.9844 15.8262 40.3145 15.9922 39.5488 16H37.1875ZM38.3125 8.39453V15.0801H39.4961C40.3633 15.0801 41.0371 14.8105 41.5176 14.2715C42.002 13.7324 42.2441 12.9648 42.2441 11.9688V11.4707C42.2441 10.502 42.0156 9.75 41.5586 9.21484C41.1055 8.67578 40.4609 8.40234 39.625 8.39453H38.3125ZM55.2443 7H50.5043V5.956H49.5803V7H44.8763V7.78H55.2443V7ZM47.2643 9.196H52.9043V10.288H47.2643V9.196ZM53.8403 10.936V8.548H46.3883V10.936H53.8403ZM55.4003 13.84H50.5163V13.648C51.8243 13.288 53.2283 12.736 54.2363 12.112L53.6483 11.632L53.4323 11.668H45.8843V12.4H52.1483C51.5243 12.676 50.8043 12.94 50.1203 13.132H49.5923V13.84H44.7683V14.608H49.5923V15.988C49.5923 16.168 49.5323 16.204 49.3043 16.216C49.1003 16.216 48.2843 16.228 47.4683 16.204C47.5883 16.42 47.7323 16.72 47.7803 16.936C48.8483 16.936 49.5443 16.948 49.9523 16.84C50.3723 16.72 50.5163 16.504 50.5163 16.012V14.608H55.4003V13.84ZM60.7283 11.92L60.6083 11.092L59.2163 11.512V9.196H60.5963V8.38H59.2163V5.968H58.3403V8.38H56.6363V9.196H58.3403V11.764C57.6323 11.968 56.9843 12.148 56.4683 12.28L56.7083 13.144L58.3403 12.652V15.868C58.3403 16.048 58.2803 16.096 58.1243 16.096C57.9683 16.108 57.4763 16.108 56.9363 16.096C57.0563 16.312 57.1643 16.684 57.2003 16.9C58.0043 16.912 58.4843 16.888 58.7963 16.756C59.0963 16.612 59.2163 16.36 59.2163 15.868V12.388L60.7283 11.92ZM67.5683 9.988H62.3243V7.792C63.9563 7.564 65.8403 7.24 67.1003 6.796L66.4403 6.1C65.4563 6.448 63.8123 6.784 62.3003 7.024L61.4363 6.868V10.684C61.4363 12.436 61.2803 14.632 59.8283 16.216C60.0443 16.336 60.3683 16.648 60.4883 16.84C62.0723 15.124 62.3123 12.676 62.3243 10.84H64.6883V16.9H65.5643V10.84H67.5683V9.988ZM76.1963 7.96H74.8763V7.252H76.1963V7.96ZM78.2603 8.548V9.7H76.9403V8.548H78.2603ZM74.8763 8.548H76.1963V9.7H74.8763V8.548ZM72.8603 8.548H74.1443V9.7H72.8603V8.548ZM74.1443 7.96H72.0803V10.276H79.0643V7.96H76.9403V7.252H79.4363V6.568H71.8043V7.252H74.1443V7.96ZM73.1603 13.888H78.0683V14.596H73.1603V13.888ZM73.1603 12.652H78.0683V13.336H73.1603V12.652ZM73.1603 11.428H78.0683V12.1H73.1603V11.428ZM78.9323 15.16V10.852H72.3323V15.16H78.9323ZM70.8923 6.028C70.3163 7.876 69.3683 9.7 68.3363 10.9C68.4803 11.116 68.7203 11.584 68.8043 11.8C69.2003 11.332 69.5723 10.792 69.9323 10.192V16.912H70.7843V8.596C71.1443 7.84 71.4563 7.048 71.7203 6.256L70.8923 6.028ZM74.2403 15.244C73.6163 15.64 72.4643 16.096 71.4203 16.324C71.5883 16.48 71.8043 16.756 71.9243 16.924C72.9803 16.672 74.1563 16.204 74.8883 15.688L74.2403 15.244ZM76.1963 15.76C77.2283 16.12 78.2843 16.588 78.8963 16.948L79.6523 16.42C78.9683 16.072 77.8163 15.616 76.7723 15.256L76.1963 15.76ZM89.5883 8.824H85.5923V8.32H89.5883V8.824ZM85.5923 10.804V10.288H89.5883V10.804H85.5923ZM89.5883 9.808H85.5923V9.292H89.5883V9.808ZM84.7763 7.804V10.804H83.6003V12.412H84.3803V11.38H86.8163L86.7203 11.452C87.1643 11.692 87.6923 12.1 87.9443 12.4L88.4843 12.016C88.3043 11.812 88.0163 11.584 87.7043 11.38H90.7403V12.412H91.5443V10.804H90.4283V7.804H87.7043C87.7883 7.612 87.8723 7.396 87.9563 7.18H91.3403V6.496H83.9363V7.18H87.0083C86.9603 7.384 86.9123 7.6 86.8643 7.804H84.7763ZM89.3243 12.016C89.8523 12.424 90.4283 13.012 90.6803 13.42L91.2803 13.072C91.0043 12.664 90.4163 12.088 89.8883 11.692L89.3243 12.016ZM84.4283 13.408C84.9803 13.072 85.4243 12.52 85.7363 12.064L85.1483 11.74C84.8603 12.16 84.3923 12.676 83.8763 12.952L84.4283 13.408ZM82.8923 6.028C82.3163 7.876 81.3683 9.7 80.3363 10.9C80.4803 11.116 80.7203 11.584 80.8043 11.8C81.2003 11.332 81.5723 10.792 81.9323 10.192V16.912H82.7843V8.596C83.1443 7.84 83.4563 7.048 83.7203 6.256L82.8923 6.028ZM89.1683 14.344C88.7723 14.692 88.2323 15.016 87.5603 15.292C86.9603 15.028 86.4323 14.716 86.0363 14.344H89.1683ZM89.8883 13.732L89.7323 13.768H86.6843C86.8763 13.6 87.0563 13.432 87.2123 13.264H88.6403C89.2643 13.264 89.4563 13.084 89.5283 12.388C89.3363 12.352 89.0603 12.268 88.9163 12.184C88.8803 12.652 88.8203 12.712 88.5443 12.712H87.0563C86.6603 12.712 86.5883 12.676 86.5883 12.46V11.704H85.8443V12.46C85.8443 12.892 85.9523 13.108 86.2763 13.204C85.6643 13.78 84.6923 14.392 83.4203 14.824C83.6003 14.944 83.8403 15.196 83.9603 15.376C84.4763 15.16 84.9443 14.932 85.3643 14.692C85.7243 15.052 86.1443 15.364 86.6243 15.628C85.7003 15.916 84.6083 16.132 83.3723 16.264C83.5163 16.456 83.7203 16.744 83.8043 16.936C85.2443 16.744 86.4923 16.456 87.5243 16.072C88.5923 16.516 89.8523 16.804 91.1843 16.96C91.2923 16.744 91.5083 16.396 91.6763 16.216C90.5483 16.12 89.4563 15.928 88.5083 15.64C89.3603 15.196 90.0203 14.668 90.4523 14.044L89.8883 13.732ZM98.4563 11.548H100.304L99.7523 11.956C100.076 12.1 100.412 12.256 100.748 12.448C99.9803 12.46 99.2123 12.472 98.4563 12.472V11.548ZM94.6883 10.948V10.156H97.5563V10.948H94.6883ZM94.6883 8.8H97.5563V9.58H94.6883V8.8ZM101.408 8.8V9.58H98.4563V8.8H101.408ZM101.408 10.948H98.4563V10.156H101.408V10.948ZM93.0563 13.288C95.2403 13.264 98.6123 13.204 101.816 13.132C102.128 13.372 102.416 13.588 102.608 13.804L103.22 13.288C102.62 12.724 101.444 11.968 100.4 11.548H102.284V8.2H98.4563V7.432H103.124V6.7H98.4563V5.98H97.5563V6.7H93.0203V7.432H97.5563V8.2H93.8363V11.548H97.5563V12.484C95.8163 12.496 94.2203 12.508 93.0083 12.496L93.0563 13.288ZM99.5483 14.644C99.1043 14.224 98.2283 13.672 97.5203 13.336L96.9563 13.816C97.6763 14.188 98.5283 14.764 98.9363 15.184L99.5483 14.644ZM93.5003 16.552C93.9803 15.928 94.3523 14.968 94.6163 14.212L93.8603 13.912C93.6203 14.62 93.2123 15.568 92.7323 16.132L93.5003 16.552ZM97.0163 16C96.2603 16 96.1283 15.952 96.1283 15.64V13.96H95.2523V15.652C95.2523 16.528 95.6123 16.756 96.9683 16.756H99.6803C100.76 16.756 101.036 16.444 101.156 15.112C100.916 15.064 100.568 14.932 100.364 14.8C100.316 15.856 100.208 16 99.6203 16H97.0163ZM101.096 14.188C101.66 14.896 102.248 15.844 102.476 16.456L103.28 16.168C103.052 15.532 102.44 14.608 101.852 13.924L101.096 14.188Z" fill="white"/>
</svg>
