<svg width="323" height="182" viewBox="0 0 323 182" fill="none" xmlns="http://www.w3.org/2000/svg">
<path fill-rule="evenodd" clip-rule="evenodd" d="M12.343 34.5V21.6041C12.4209 19.5252 12.9075 16.5385 13.9263 14.2762C14.9712 11.9559 15.7232 11.994 15.8335 11.9996L15.843 12H15.8853H15.9279H15.9709H16.0141H16.0576H16.1014H16.1455H16.1899H16.2345H16.2795H16.3247H16.3702H16.416H16.4621H16.5085H16.5551H16.6021H16.6493H16.6968H16.7445H16.7925H16.8408H16.8894H16.9383H16.9874H17.0368H17.0864H17.1364H17.1866H17.237H17.2877H17.3387H17.39H17.4415H17.4932H17.5452H17.5975H17.6501H17.7029H17.7559H17.8092H17.8628H17.9166H17.9706H18.0249H18.0795H18.1343H18.1893H18.2446H18.3001H18.3559H18.4119H18.4682H18.5247H18.5814H18.6384H18.6956H18.753H18.8107H18.8686H18.9267H18.9851H19.0437H19.1026H19.1616H19.2209H19.2804H19.3401H19.4001H19.4603H19.5207H19.5813H19.6421H19.7032H19.7645H19.826H19.8877H19.9496H20.0117H20.0741H20.1366H20.1994H20.2624H20.3255H20.3889H20.4525H20.5163H20.5803H20.6445H20.7089H20.7735H20.8383H20.9033H20.9685H21.0339H21.0995H21.1653H21.2312H21.2974H21.3638H21.4303H21.497H21.564H21.6311H21.6983H21.7658H21.8335H21.9013H21.9693H22.0375H22.1059H22.1744H22.2432H22.3121H22.3812H22.4504H22.5198H22.5894H22.6592H22.7291H22.7992H22.8695H22.9399H23.0105H23.0813H23.1522H23.2233H23.2945H23.3659H23.4375H23.5092H23.5811H23.6531H23.7253H23.7977H23.8702H23.9428H24.0156H24.0885H24.1616H24.2348H24.3082H24.3817H24.4554H24.5292H24.6032H24.6773H24.7515H24.8258H24.9004H24.975H25.0498H25.1247H25.1997H25.2749H25.3502H25.4256H25.5012H25.5769H25.6527H25.7286H25.8047H25.8809H25.9572H26.0336H26.1101H26.1868H26.2636H26.3405H26.4175H26.4946H26.5719H26.6492H26.7267H26.8043H26.882H26.9597H27.0376H27.1157H27.1938H27.272H27.3503H27.4287H27.5072H27.5859H27.6646H27.7434H27.8223H27.9013H27.9804H28.0596H28.1389H28.2183H28.2977H28.3773H28.4569H28.5366H28.6165H28.6964H28.7763H28.8564H28.9365H29.0168H29.0971H29.1775H29.2579H29.3385H29.4191H29.4998H29.5805H29.6613H29.7422H29.8232H29.9042H29.9854H30.0665H30.1478H30.2291H30.3104H30.3918H30.4733H30.5549H30.6365H30.7182H30.7999H30.8816H30.9635H31.0454H31.1273H31.2093H31.2913H31.3734H31.4555H31.5377H31.62H31.7022H31.7845H31.8669H31.9493H32.0317H32.1142H32.1968H32.2793H32.3619H32.4445H32.5272H32.6099H32.6926H32.7754H32.8582H32.941H33.0238H33.1067H33.1896H33.2725H33.3555H33.4384H33.5214H33.6045H33.6875H33.7705H33.8536H33.9367H34.0198H34.1029H34.186H34.2692H34.3523H34.4355H34.5186H34.6018H34.685H34.7682H34.8513H34.9345H35.0177H35.1009H35.1841H35.2673H35.3505H35.4337H35.5169H35.6001H35.6832H35.7664H35.8496H35.9327H36.0159H36.099H36.1821H36.2652H36.3483H36.4314H36.5144H36.5974H36.6805H36.7634H36.8464H36.9294H37.0123H37.0952H37.1781H37.2609H37.3437H37.4265H37.5093H37.592H37.6747H37.7574H37.84H37.9226H38.0052H38.0877H38.1702H38.2527H38.3351H38.4174H38.4998H38.582H38.6643H38.7465H38.8286H38.9107H38.9927H39.0747H39.1567H39.2386H39.3204H39.4022H39.4839H39.5656H39.6472H39.7288H39.8102H39.8917H39.9731H40.0544H40.1356H40.2168H40.2979H40.3789H40.4599H40.5408H40.6217H40.7024H40.7831H40.8638H40.9443H41.0248H41.1052H41.1855H41.2657H41.3459H41.4259H41.5059H41.5858H41.6657H41.7454H41.8251H41.9046H41.9841H42.0635H42.1428H42.222H42.3011H42.3801H42.459H42.5379H42.6166H42.6952H42.7738H42.8522H42.9305H43.0088H43.0869H43.1649H43.2428H43.3206H43.3983H43.4759H43.5534H43.6308H43.708H43.7852H43.8622H43.9391H44.0159H44.0926H44.1692H44.2456H44.3219H44.3981H44.4742H44.5502H44.626H44.7017H44.7773H44.8527H44.928H45.0032H45.0783H45.1532H45.228H45.3026H45.3772H45.4515H45.5258H45.5999H45.6739H45.7477H45.8214H45.8949H45.9683H46.0416H46.1147H46.1876H46.2604H46.3331H46.4056H46.478H46.5502H46.6222H46.6941H46.7659H46.8375H46.9089H46.9801H47.0513H47.1222H47.193H47.2636H47.3341H47.4043H47.4745H47.5444H47.6142H47.6838H47.7533H47.8225H47.8916H47.9606H48.0293H48.0979H48.1663H48.2345H48.3026H48.3704H48.4381H48.5056H48.5729H48.64H48.707H48.7737H48.8403H48.9067H48.9729H49.0389H49.1047H49.1703H49.2357H49.3009H49.3659H49.4308H49.4954H49.5598H49.624H49.6881H49.7519H49.8155H49.8789H49.9421H50.0051H50.0679H50.1305H50.1929H50.255H50.317H50.3787H50.4402H50.5016H50.5626H50.6235H50.6842H50.7446H50.8048H50.8648H50.9246H50.9841H51.0434H51.1025H51.1614H51.22H51.2784H51.3366H51.3945H51.4522H51.5097H51.5669H51.6239H51.6807H51.7372H51.7935H51.8495H51.9054H51.9609H52.0162H52.0713H52.1261H52.1807H52.2351H52.2891H52.343H91.8434V20.875C91.8434 24.1887 94.5297 26.875 97.8434 26.875C101.157 26.875 103.843 24.1887 103.843 20.875V12H178.343H300.843H300.848H300.853H300.858H300.863H300.868H300.873H300.878H300.883H300.888H300.894H300.899H300.904H300.909H300.915H300.92H300.926H300.931H300.937H300.942H300.948H300.953H300.959H300.964H300.97H300.976H300.982H300.987H300.993H300.999H301.005H301.011H301.017H301.023H301.029H301.035H301.041H301.047H301.053H301.06H301.066H301.072H301.078H301.085H301.091H301.098H301.104H301.11H301.117H301.123H301.13H301.137H301.143H301.15H301.157H301.163H301.17H301.177H301.184H301.19H301.197H301.204H301.211H301.218H301.225H301.232H301.239H301.246H301.254H301.261H301.268H301.275H301.282H301.29H301.297H301.304H301.312H301.319H301.327H301.334H301.342H301.349H301.357H301.364H301.372H301.38H301.387H301.395H301.403H301.411H301.419H301.426H301.434H301.442H301.45H301.458H301.466H301.474H301.482H301.49H301.499H301.507H301.515H301.523H301.531H301.54H301.548H301.556H301.565H301.573H301.582H301.59H301.598H301.607H301.616H301.624H301.633H301.641H301.65H301.659H301.667H301.676H301.685H301.694H301.703H301.712H301.72H301.729H301.738H301.747H301.756H301.765H301.774H301.784H301.793H301.802H301.811H301.82H301.829H301.839H301.848H301.857H301.867H301.876H301.885H301.895H301.904H301.914H301.923H301.933H301.943H301.952H301.962H301.971H301.981H301.991H302.001H302.01H302.02H302.03H302.04H302.05H302.06H302.07H302.08H302.09H302.1H302.11H302.12H302.13H302.14H302.15H302.16H302.17H302.181H302.191H302.201H302.212H302.222H302.232H302.243H302.253H302.263H302.274H302.284H302.295H302.306H302.316H302.327H302.337H302.348H302.359H302.369H302.38H302.391H302.402H302.412H302.423H302.434H302.445H302.456H302.467H302.478H302.489H302.5H302.511H302.522H302.533H302.544H302.555H302.566H302.578H302.589H302.6H302.611H302.622H302.634H302.645H302.656H302.668H302.679H302.691H302.702H302.714H302.725H302.737H302.748H302.76H302.771H302.783H302.795H302.806H302.818H302.83H302.841H302.853H302.865H302.877H302.889H302.9H302.912H302.924H302.936H302.948H302.96H302.972H302.984H302.996H303.008H303.02H303.032H303.044H303.057H303.069H303.081H303.093H303.105H303.118H303.13H303.142H303.155H303.167H303.179H303.192H303.204H303.217H303.229H303.242H303.254H303.267H303.279H303.292H303.304H303.317H303.33H303.342H303.355H303.368H303.38H303.393H303.406H303.419H303.432H303.444H303.457H303.47H303.483H303.496H303.509H303.522H303.535H303.548H303.561H303.574H303.587H303.6H303.613H303.626H303.639H303.653H303.666H303.679H303.692H303.706H303.719H303.732H303.745H303.759H303.772H303.785H303.799H303.812H303.826H303.839H303.853H303.866H303.88H303.893H303.907H303.92H303.934H303.947H303.961H303.975H303.988H304.002H304.016H304.029H304.043H304.057H304.071H304.085H304.098H304.112H304.126H304.14H304.154H304.168H304.182H304.196H304.21H304.224H304.238H304.252H304.266H304.28H304.294H304.308H304.322H304.336H304.35H304.364H304.379H304.393H304.407H304.421H304.435H304.45H304.464H304.478H304.493H304.507H304.521H304.536H304.55H304.564H304.579H304.593H304.608H304.622H304.637H304.651H304.666H304.68H304.695H304.709H304.724H304.739H304.753H304.768H304.783H304.797H304.812H304.827H304.841H304.856H304.871H304.886H304.9H304.915H304.93H304.945H304.96H304.975H304.99H305.004H305.019H305.034H305.049H305.064H305.079H305.094H305.109H305.124H305.139H305.154H305.169H305.184H305.2H305.215H305.23H305.245H305.26H305.275H305.291H305.306H305.321H305.336H305.351H305.367H305.382H305.397H305.413H305.428H305.443H305.459H305.474H305.489H305.505H305.52H305.536H305.551H305.566H305.582H305.597H305.613H305.628H305.644H305.659H305.675H305.69H305.706H305.722H305.737H305.753H305.768H305.784H305.8H305.815H305.831H305.847H305.863H305.878H305.894H305.91H305.925H305.941H305.957H305.973H305.989H306.004H306.02H306.036H306.052H306.068H306.084H306.1H306.116H306.131H306.147H306.163H306.179H306.195H306.211H306.227H306.243H306.259H306.275H306.291H306.307H306.323H306.339H306.355H306.372H306.388H306.404H306.42H306.436H306.452H306.468H306.485H306.501H306.517H306.533H306.549H306.566H306.582H306.598H306.614H306.631H306.647H306.663H306.679H306.696H306.712H306.728H306.745H306.761H306.777H306.794H306.81H306.827H306.843C307.85 12 308.248 12.1309 308.352 12.1725C308.37 12.2013 308.397 12.2487 308.431 12.3212C308.555 12.5885 308.772 13.2172 308.858 14.4275C309.219 19.4776 309.03 41.4706 308.865 53.4225C308.007 53.6398 307.157 53.8889 306.315 54.1697C301.494 55.7775 297.069 58.3876 293.329 61.8284C289.59 65.2692 286.621 69.4626 284.618 74.133C282.616 78.8033 281.625 83.8447 281.71 88.9256C281.796 94.0064 282.956 99.0116 285.114 103.612C287.273 108.212 290.381 112.304 294.234 115.617C298.087 118.93 302.597 121.39 307.469 122.834C308.272 123.072 309.081 123.282 309.895 123.463C310.224 135.704 310.588 158.25 309.873 165.403C309.801 166.121 309.352 167.181 306.68 168.221C304.06 169.24 300.741 169.57 298.525 169.503L298.434 169.5H298.343H103.823C103.836 169.335 103.843 169.168 103.843 169V159.125C103.843 155.811 101.157 153.125 97.8434 153.125C94.5297 153.125 91.8434 155.811 91.8434 159.125V169C91.8434 169.168 91.8503 169.335 91.8639 169.5H20.343H19.6466L18.9687 169.66C17.8216 169.929 16.1592 169.757 14.8242 168.238C13.3376 166.547 11.1854 161.999 12.3111 151.117L12.343 150.81V150.5V129.534C15.7711 128.675 18.7582 127.348 21.9379 125.689C27.1058 122.991 31.6095 119.279 35.1254 114.769C38.643 110.257 41.0823 105.06 42.257 99.5175C43.4319 93.9747 43.3079 88.2472 41.9085 82.7218C40.5096 77.1988 37.8743 72.0244 34.2125 67.5259C30.552 63.029 25.9453 59.3042 20.7129 56.5708C17.7198 55.0071 15.0266 54.1007 12.343 53.5194V34.5ZM7.61318 64.8653C7.20376 64.9535 6.77879 65 6.34298 65C3.02927 65 0.34298 62.3137 0.34298 59V55V34.5V21.5V21.4033L0.346099 21.3066C0.445607 18.2218 1.10977 13.5122 2.98461 9.34884C4.80982 5.29573 8.70811 0 15.843 0H15.8853H15.9279H15.9709H16.0141H16.0576H16.1014H16.1455H16.1899H16.2345H16.2795H16.3247H16.3702H16.416H16.4621H16.5085H16.5551H16.6021H16.6493H16.6968H16.7445H16.7925H16.8408H16.8894H16.9383H16.9874H17.0368H17.0864H17.1364H17.1866H17.237H17.2877H17.3387H17.39H17.4415H17.4932H17.5452H17.5975H17.6501H17.7029H17.7559H17.8092H17.8628H17.9166H17.9706H18.0249H18.0795H18.1343H18.1893H18.2446H18.3001H18.3559H18.4119H18.4682H18.5247H18.5814H18.6384H18.6956H18.753H18.8107H18.8686H18.9267H18.9851H19.0437H19.1026H19.1616H19.2209H19.2804H19.3401H19.4001H19.4603H19.5207H19.5813H19.6421H19.7032H19.7645H19.826H19.8877H19.9496H20.0117H20.0741H20.1366H20.1994H20.2624H20.3255H20.3889H20.4525H20.5163H20.5803H20.6445H20.7089H20.7735H20.8383H20.9033H20.9685H21.0339H21.0995H21.1653H21.2312H21.2974H21.3638H21.4303H21.497H21.564H21.6311H21.6983H21.7658H21.8335H21.9013H21.9693H22.0375H22.1059H22.1744H22.2432H22.3121H22.3812H22.4504H22.5198H22.5894H22.6592H22.7291H22.7992H22.8695H22.9399H23.0105H23.0813H23.1522H23.2233H23.2945H23.3659H23.4375H23.5092H23.5811H23.6531H23.7253H23.7977H23.8702H23.9428H24.0156H24.0885H24.1616H24.2348H24.3082H24.3817H24.4554H24.5292H24.6032H24.6773H24.7515H24.8258H24.9004H24.975H25.0498H25.1247H25.1997H25.2749H25.3502H25.4256H25.5012H25.5769H25.6527H25.7286H25.8047H25.8809H25.9572H26.0336H26.1101H26.1868H26.2636H26.3405H26.4175H26.4946H26.5719H26.6492H26.7267H26.8043H26.882H26.9597H27.0376H27.1157H27.1938H27.272H27.3503H27.4287H27.5072H27.5859H27.6646H27.7434H27.8223H27.9013H27.9804H28.0596H28.1389H28.2183H28.2977H28.3773H28.4569H28.5366H28.6165H28.6964H28.7763H28.8564H28.9365H29.0168H29.0971H29.1775H29.2579H29.3385H29.4191H29.4998H29.5805H29.6613H29.7422H29.8232H29.9042H29.9854H30.0665H30.1478H30.2291H30.3104H30.3918H30.4733H30.5549H30.6365H30.7182H30.7999H30.8816H30.9635H31.0454H31.1273H31.2093H31.2913H31.3734H31.4555H31.5377H31.62H31.7022H31.7845H31.8669H31.9493H32.0317H32.1142H32.1968H32.2793H32.3619H32.4445H32.5272H32.6099H32.6926H32.7754H32.8582H32.941H33.0238H33.1067H33.1896H33.2725H33.3555H33.4384H33.5214H33.6045H33.6875H33.7705H33.8536H33.9367H34.0198H34.1029H34.186H34.2692H34.3523H34.4355H34.5186H34.6018H34.685H34.7682H34.8513H34.9345H35.0177H35.1009H35.1841H35.2673H35.3505H35.4337H35.5169H35.6001H35.6832H35.7664H35.8496H35.9327H36.0159H36.099H36.1821H36.2652H36.3483H36.4314H36.5144H36.5974H36.6805H36.7634H36.8464H36.9294H37.0123H37.0952H37.1781H37.2609H37.3437H37.4265H37.5093H37.592H37.6747H37.7574H37.84H37.9226H38.0052H38.0877H38.1702H38.2527H38.3351H38.4174H38.4998H38.582H38.6643H38.7465H38.8286H38.9107H38.9927H39.0747H39.1567H39.2386H39.3204H39.4022H39.4839H39.5656H39.6472H39.7288H39.8102H39.8917H39.9731H40.0544H40.1356H40.2168H40.2979H40.3789H40.4599H40.5408H40.6217H40.7024H40.7831H40.8638H40.9443H41.0248H41.1052H41.1855H41.2657H41.3459H41.4259H41.5059H41.5858H41.6657H41.7454H41.8251H41.9046H41.9841H42.0635H42.1428H42.222H42.3011H42.3801H42.459H42.5379H42.6166H42.6952H42.7738H42.8522H42.9305H43.0088H43.0869H43.1649H43.2428H43.3206H43.3983H43.4759H43.5534H43.6308H43.708H43.7852H43.8622H43.9391H44.0159H44.0926H44.1692H44.2456H44.3219H44.3981H44.4742H44.5502H44.626H44.7017H44.7773H44.8527H44.928H45.0032H45.0783H45.1532H45.228H45.3026H45.3772H45.4515H45.5258H45.5999H45.6739H45.7477H45.8214H45.8949H45.9683H46.0416H46.1147H46.1876H46.2604H46.3331H46.4056H46.478H46.5502H46.6222H46.6941H46.7659H46.8375H46.9089H46.9801H47.0513H47.1222H47.193H47.2636H47.3341H47.4043H47.4745H47.5444H47.6142H47.6838H47.7533H47.8225H47.8916H47.9606H48.0293H48.0979H48.1663H48.2345H48.3026H48.3704H48.4381H48.5056H48.5729H48.64H48.707H48.7737H48.8403H48.9067H48.9729H49.0389H49.1047H49.1703H49.2357H49.3009H49.3659H49.4308H49.4954H49.5598H49.624H49.6881H49.7519H49.8155H49.8789H49.9421H50.0051H50.0679H50.1305H50.1929H50.255H50.317H50.3787H50.4402H50.5016H50.5626H50.6235H50.6842H50.7446H50.8048H50.8648H50.9246H50.9841H51.0434H51.1025H51.1614H51.22H51.2784H51.3366H51.3945H51.4522H51.5097H51.5669H51.6239H51.6807H51.7372H51.7935H51.8495H51.9054H51.9609H52.0162H52.0713H52.1261H52.1807H52.2351H52.2891H52.343H95.8434H178.343H300.843H300.848H300.853H300.858H300.863H300.868H300.873H300.878H300.883H300.888H300.894H300.899H300.904H300.909H300.915H300.92H300.926H300.931H300.937H300.942H300.948H300.953H300.959H300.964H300.97H300.976H300.982H300.987H300.993H300.999H301.005H301.011H301.017H301.023H301.029H301.035H301.041H301.047H301.053H301.06H301.066H301.072H301.078H301.085H301.091H301.098H301.104H301.11H301.117H301.123H301.13H301.137H301.143H301.15H301.157H301.163H301.17H301.177H301.184H301.19H301.197H301.204H301.211H301.218H301.225H301.232H301.239H301.246H301.254H301.261H301.268H301.275H301.282H301.29H301.297H301.304H301.312H301.319H301.327H301.334H301.342H301.349H301.357H301.364H301.372H301.38H301.387H301.395H301.403H301.411H301.419H301.426H301.434H301.442H301.45H301.458H301.466H301.474H301.482H301.49H301.499H301.507H301.515H301.523H301.531H301.54H301.548H301.556H301.565H301.573H301.582H301.59H301.598H301.607H301.616H301.624H301.633H301.641H301.65H301.659H301.667H301.676H301.685H301.694H301.703H301.712H301.72H301.729H301.738H301.747H301.756H301.765H301.774H301.784H301.793H301.802H301.811H301.82H301.829H301.839H301.848H301.857H301.867H301.876H301.885H301.895H301.904H301.914H301.923H301.933H301.943H301.952H301.962H301.971H301.981H301.991H302.001H302.01H302.02H302.03H302.04H302.05H302.06H302.07H302.08H302.09H302.1H302.11H302.12H302.13H302.14H302.15H302.16H302.17H302.181H302.191H302.201H302.212H302.222H302.232H302.243H302.253H302.263H302.274H302.284H302.295H302.306H302.316H302.327H302.337H302.348H302.359H302.369H302.38H302.391H302.402H302.412H302.423H302.434H302.445H302.456H302.467H302.478H302.489H302.5H302.511H302.522H302.533H302.544H302.555H302.566H302.578H302.589H302.6H302.611H302.622H302.634H302.645H302.656H302.668H302.679H302.691H302.702H302.714H302.725H302.737H302.748H302.76H302.771H302.783H302.795H302.806H302.818H302.83H302.841H302.853H302.865H302.877H302.889H302.9H302.912H302.924H302.936H302.948H302.96H302.972H302.984H302.996H303.008H303.02H303.032H303.044H303.057H303.069H303.081H303.093H303.105H303.118H303.13H303.142H303.155H303.167H303.179H303.192H303.204H303.217H303.229H303.242H303.254H303.267H303.279H303.292H303.304H303.317H303.33H303.342H303.355H303.368H303.38H303.393H303.406H303.419H303.432H303.444H303.457H303.47H303.483H303.496H303.509H303.522H303.535H303.548H303.561H303.574H303.587H303.6H303.613H303.626H303.639H303.653H303.666H303.679H303.692H303.706H303.719H303.732H303.745H303.759H303.772H303.785H303.799H303.812H303.826H303.839H303.853H303.866H303.88H303.893H303.907H303.92H303.934H303.947H303.961H303.975H303.988H304.002H304.016H304.029H304.043H304.057H304.071H304.085H304.098H304.112H304.126H304.14H304.154H304.168H304.182H304.196H304.21H304.224H304.238H304.252H304.266H304.28H304.294H304.308H304.322H304.336H304.35H304.364H304.379H304.393H304.407H304.421H304.435H304.45H304.464H304.478H304.493H304.507H304.521H304.536H304.55H304.564H304.579H304.593H304.608H304.622H304.637H304.651H304.666H304.68H304.695H304.709H304.724H304.739H304.753H304.768H304.783H304.797H304.812H304.827H304.841H304.856H304.871H304.886H304.9H304.915H304.93H304.945H304.96H304.975H304.99H305.004H305.019H305.034H305.049H305.064H305.079H305.094H305.109H305.124H305.139H305.154H305.169H305.184H305.2H305.215H305.23H305.245H305.26H305.275H305.291H305.306H305.321H305.336H305.351H305.367H305.382H305.397H305.413H305.428H305.443H305.459H305.474H305.489H305.505H305.52H305.536H305.551H305.566H305.582H305.597H305.613H305.628H305.644H305.659H305.675H305.69H305.706H305.722H305.737H305.753H305.768H305.784H305.8H305.815H305.831H305.847H305.863H305.878H305.894H305.91H305.925H305.941H305.957H305.973H305.989H306.004H306.02H306.036H306.052H306.068H306.084H306.1H306.116H306.131H306.147H306.163H306.179H306.195H306.211H306.227H306.243H306.259H306.275H306.291H306.307H306.323H306.339H306.355H306.372H306.388H306.404H306.42H306.436H306.452H306.468H306.485H306.501H306.517H306.533H306.549H306.566H306.582H306.598H306.614H306.631H306.647H306.663H306.679H306.696H306.712H306.728H306.745H306.761H306.777H306.794H306.81H306.827H306.843C308.992 0 312.487 0.264445 315.568 2.575C318.884 5.06168 320.497 8.94921 320.828 13.5725C321.221 19.0737 321.038 40.4828 320.879 52.4605C320.938 52.4657 320.996 52.471 321.055 52.4765C321.136 52.4841 321.217 52.4919 321.298 52.5L320.877 52.5793C320.866 53.4727 320.854 54.3125 320.842 55.0882C320.82 56.6175 320.227 58.0046 319.27 59.0503C319.806 59.9568 319.903 60.6988 319 61C318.422 61.1927 317.648 61.3802 316.736 61.6008L316.736 61.6009C312.533 62.6181 305.424 64.3388 301.317 70.51C298.803 72.8232 296.807 75.6424 295.461 78.7823C294.115 81.9221 293.448 85.3114 293.506 88.7272C293.563 92.143 294.343 95.508 295.794 98.6008C297.246 101.694 299.335 104.444 301.925 106.671C304.258 108.677 312.316 112.272 316.288 113.676C316.602 113.754 316.909 113.858 317.206 113.985C317.288 114.01 317.366 114.034 317.44 114.056C317.744 114.146 317.983 114.301 318.171 114.506C319.013 115.066 319.725 115.847 320.21 116.817L321.21 118.817L321.802 120.002L321.84 121.326C321.862 122.084 321.885 122.906 321.908 123.781L322.5 123.999C322.424 124.01 322.349 124.02 322.273 124.029C322.154 124.044 322.035 124.059 321.916 124.073C322.234 136.334 322.598 158.746 321.813 166.597C321.085 173.879 315.534 177.652 311.031 179.404C306.52 181.159 301.543 181.589 298.257 181.5H95.8434H20.9495C16.4797 182.309 10.3919 181.371 5.81179 176.162C1.15508 170.865 -0.864926 162.347 0.34298 150.197V124C0.34298 120.686 3.02927 118 6.34298 118C6.8938 118 7.42729 118.074 7.93399 118.213C10.7984 117.704 13.2129 116.706 16.385 115.051C20.0874 113.118 23.2395 110.498 25.6615 107.391C28.082 104.287 29.7282 100.755 30.5178 97.0293C31.3074 93.3044 31.2301 89.436 30.2758 85.668C29.3208 81.8977 27.5034 78.2922 24.9061 75.1015C22.3076 71.9093 18.9909 69.21 15.1565 67.2068C12.6028 65.8728 10.4904 65.2707 7.61318 64.8653ZM308.324 12.135C308.324 12.1347 308.327 12.1377 308.333 12.1448C308.327 12.1388 308.324 12.1352 308.324 12.135ZM233.354 50.8009C235.177 48.0338 234.411 44.3127 231.644 42.4896C228.877 40.6666 225.156 41.4319 223.333 44.1991L167.333 129.199C165.51 131.966 166.275 135.687 169.042 137.51C171.81 139.333 175.531 138.568 177.354 135.801L233.354 50.8009ZM103.843 40.625C103.843 37.3113 101.157 34.625 97.8434 34.625C94.5297 34.625 91.8434 37.3113 91.8434 40.625V60.375C91.8434 63.6887 94.5297 66.375 97.8434 66.375C101.157 66.375 103.843 63.6887 103.843 60.375V40.625ZM103.843 80.125C103.843 76.8113 101.157 74.125 97.8434 74.125C94.5297 74.125 91.8434 76.8113 91.8434 80.125V99.875C91.8434 103.189 94.5297 105.875 97.8434 105.875C101.157 105.875 103.843 103.189 103.843 99.875V80.125ZM103.843 119.625C103.843 116.311 101.157 113.625 97.8434 113.625C94.5297 113.625 91.8434 116.311 91.8434 119.625V139.375C91.8434 142.689 94.5297 145.375 97.8434 145.375C101.157 145.375 103.843 142.689 103.843 139.375V119.625ZM172.843 73.5C178.088 73.5 181.843 69.4235 181.843 65C181.843 60.5765 178.088 56.5 172.843 56.5C167.599 56.5 163.843 60.5765 163.843 65C163.843 69.4235 167.599 73.5 172.843 73.5ZM172.843 85.5C184.441 85.5 193.843 76.3218 193.843 65C193.843 53.6782 184.441 44.5 172.843 44.5C161.245 44.5 151.843 53.6782 151.843 65C151.843 76.3218 161.245 85.5 172.843 85.5ZM235.843 115C235.843 119.423 232.088 123.5 226.843 123.5C221.599 123.5 217.843 119.423 217.843 115C217.843 110.577 221.599 106.5 226.843 106.5C232.088 106.5 235.843 110.577 235.843 115ZM247.843 115C247.843 126.322 238.441 135.5 226.843 135.5C215.245 135.5 205.843 126.322 205.843 115C205.843 103.678 215.245 94.5 226.843 94.5C238.441 94.5 247.843 103.678 247.843 115Z" fill="#646464"/>
</svg>
