<svg width="950" height="94" viewBox="0 0 950 94" fill="none" xmlns="http://www.w3.org/2000/svg">
<path d="M826.521 69.8518H818.621V68.1118H817.081V69.8518H809.241V71.1518H826.521V69.8518ZM813.221 73.5118H822.621V75.3318H813.221V73.5118ZM824.181 76.4118V72.4318H811.761V76.4118H824.181ZM826.781 81.2518H818.641V80.9318C820.821 80.3318 823.161 79.4118 824.841 78.3718L823.861 77.5718L823.501 77.6318H810.921V78.8518H821.361C820.321 79.3118 819.121 79.7518 817.981 80.0718H817.101V81.2518H809.061V82.5318H817.101V84.8318C817.101 85.1318 817.001 85.1918 816.621 85.2118C816.281 85.2118 814.921 85.2318 813.561 85.1918C813.761 85.5518 814.001 86.0518 814.081 86.4118C815.861 86.4118 817.021 86.4318 817.701 86.2518C818.401 86.0518 818.641 85.6918 818.641 84.8718V82.5318H826.781V81.2518ZM839.081 84.5918C837.681 84.5918 837.421 84.3518 837.421 83.2918V80.3918L846.561 79.1918L846.361 77.8118L837.421 78.9718V75.8518L845.221 74.7518L845.021 73.3718L837.421 74.4318V71.3318C840.001 70.7918 842.441 70.1718 844.341 69.4118L843.081 68.2518C840.001 69.5318 834.361 70.6118 829.421 71.2718C829.581 71.5918 829.801 72.1918 829.861 72.5518C831.821 72.3118 833.881 71.9918 835.901 71.6118V74.6518L829.781 75.4918L830.001 76.8918L835.901 76.0718V79.1718L829.161 80.0518L829.381 81.4518L835.901 80.5918V83.2518C835.901 85.4518 836.601 86.0318 839.001 86.0318H844.101C846.301 86.0318 846.801 85.1518 847.061 82.3918C846.601 82.2718 845.981 82.0518 845.601 81.7718C845.441 84.0718 845.241 84.5918 844.061 84.5918H839.081ZM856.101 75.7918L853.181 76.4118V74.3118C854.101 73.4318 855.081 72.2318 855.881 71.0118V72.1918H860.121C859.501 73.1318 858.621 74.2518 857.841 75.1318C857.541 74.8718 857.241 74.6318 856.941 74.4118L856.021 75.3918C857.121 76.2718 858.421 77.4718 859.281 78.4518C858.001 79.3918 856.621 80.2118 855.221 80.8318C855.541 81.1318 855.961 81.5918 856.181 81.9518C859.701 80.2918 863.061 77.4918 865.081 74.3318L863.741 73.7718C862.921 75.0918 861.781 76.3718 860.441 77.5118C860.001 77.0518 859.441 76.5118 858.821 75.9718C859.781 74.9718 860.921 73.6118 861.801 72.4118L861.341 72.1918H866.961V70.8118H862.101V68.1118H860.641V70.8118H856.021C856.221 70.5118 856.401 70.2118 856.561 69.9118L855.541 69.2518L855.261 69.3318H849.181V70.7118H854.281C853.701 71.6318 852.941 72.6318 852.221 73.3518H851.741V76.7118C850.561 76.9518 849.481 77.1718 848.601 77.3318L848.961 78.7318C849.781 78.5518 850.721 78.3518 851.741 78.1118V84.5718C851.741 84.8118 851.681 84.8918 851.421 84.8918C851.141 84.8918 850.301 84.8918 849.341 84.8718C849.561 85.2918 849.761 85.9518 849.821 86.3718C851.061 86.3718 851.921 86.3318 852.461 86.0918C853.021 85.8318 853.181 85.3918 853.181 84.5718V77.7918C854.181 77.5718 855.201 77.3518 856.201 77.1318L856.101 75.7918ZM865.281 77.4918C863.181 80.8118 859.261 83.6118 855.041 85.1318C855.421 85.4718 855.801 85.9918 856.021 86.3518C858.241 85.4718 860.361 84.2718 862.201 82.8118C863.601 83.9918 865.201 85.4318 866.001 86.4118L867.201 85.3118C866.361 84.3518 864.741 82.9518 863.341 81.8518C864.601 80.7318 865.701 79.4718 866.581 78.1318L865.281 77.4918ZM878.701 84.3118V79.2318H885.121V77.7918H878.701V73.4318H885.861V71.9718H878.701V68.1318H877.181V71.9718H873.121C873.561 70.9518 873.921 69.8718 874.241 68.7718L872.741 68.4518C871.961 71.2918 870.681 74.0518 869.041 75.8118C869.441 76.0118 870.101 76.4518 870.401 76.6918C871.141 75.7918 871.841 74.6918 872.481 73.4318H877.181V77.7918H871.241V79.2318H877.181V84.3118H869.081V85.7518H886.801V84.3118H878.701ZM893.001 83.3918V77.8118H902.921V83.3918H893.001ZM902.921 70.9518V76.3518H893.001V70.9518H902.921ZM891.501 69.4918V86.1518H893.001V84.8518H902.921V86.0718H904.481V69.4918H891.501ZM925.081 71.9318H923.221V70.5118H925.081V71.9318ZM925.081 74.3318H923.221V72.8918H925.081V74.3318ZM917.721 72.8918H919.461V74.3318H917.721V72.8918ZM917.721 70.5118H919.461V71.9318H917.721V70.5118ZM922.241 72.8918V74.3318H920.441V72.8918H922.241ZM920.441 71.9318V70.5118H922.241V71.9318H920.441ZM926.341 69.5118H923.381V68.1118H922.241V69.5118H920.441V68.1118H919.301V69.5118H916.481V75.3318H926.341V69.5118ZM926.821 76.2718H916.001V77.4318H926.821V76.2718ZM918.381 79.4318H924.441V81.0318H918.381V79.4318ZM925.741 82.0118V78.4318H917.141V82.0118H925.741ZM915.101 69.4318H909.481V70.7318H915.101V69.4318ZM909.341 78.5118C909.341 80.2918 909.241 82.4118 908.661 84.0918C908.941 84.2118 909.381 84.5118 909.561 84.7518C910.281 82.8918 910.381 80.5918 910.381 78.5318V76.1718H909.341V78.5118ZM914.341 83.4718H915.381V76.1518H914.341V83.4718ZM908.961 74.7318H911.701V86.3518H912.981V74.7318H915.541V73.4318H908.961V74.7318ZM923.661 84.7718C924.021 84.1518 924.381 83.2918 924.781 82.4918L923.461 82.1118C923.261 82.8118 922.821 83.8918 922.461 84.5518L923.141 84.7718H919.421L920.221 84.5118C920.101 83.8718 919.761 82.8918 919.341 82.1518L918.161 82.4518C918.521 83.1718 918.841 84.0918 918.961 84.7718H915.621V85.9318H927.061V84.7718H923.661Z" fill="#646464"/>
<path fill-rule="evenodd" clip-rule="evenodd" d="M867.618 4.8642C864.294 4.8642 861.356 7.02085 859.041 9.44382C856.695 11.8982 854.797 14.831 853.573 16.7517C851.893 19.3871 849.111 24.3293 847.371 29.3564C846.502 31.8681 845.874 34.4525 845.798 36.8083C845.722 39.1589 846.193 41.4041 847.662 43.0826C849.357 45.0187 852.213 46.3707 855.509 47.2463C858.836 48.1301 862.751 48.5652 866.718 48.5652C870.182 48.5652 873.712 48.2335 876.957 47.5652H877.066C877.244 47.5652 877.411 47.5187 877.555 47.4373C877.825 47.3778 878.091 47.3159 878.356 47.2516C881.953 46.3773 885.191 45.0452 887.453 43.1988C889.164 41.803 889.599 39.5059 889.47 37.1398C889.338 34.7368 888.612 31.9821 887.667 29.3118C885.773 23.9637 882.905 18.699 881.664 16.7517C880.463 14.8678 878.498 11.9414 876.113 9.47777C873.77 7.05783 870.813 4.8642 867.618 4.8642ZM878.066 45.2634C881.44 44.4249 884.286 43.2023 886.189 41.6491C887.143 40.8708 887.591 39.4123 887.473 37.2494C887.356 35.1235 886.701 32.576 885.781 29.9793C883.945 24.7935 881.149 19.6647 879.977 17.8266C878.793 15.9684 876.916 13.1822 874.676 10.869C872.394 8.51197 869.942 6.8642 867.618 6.8642C865.149 6.8642 862.712 8.4974 860.487 10.8256C858.292 13.1224 856.486 15.9021 855.259 17.8266C853.627 20.3869 850.932 25.1835 849.261 30.0106C848.425 32.426 847.864 34.7976 847.797 36.8731C847.73 38.9538 848.16 40.6153 849.167 41.7653C850.473 43.2567 852.868 44.4753 856.023 45.3134C856.411 45.4166 856.809 45.5134 857.215 45.604V27.7147C857.215 27.1624 857.663 26.7147 858.215 26.7147H877.066C877.618 26.7147 878.066 27.1624 878.066 27.7147V45.2634Z" fill="#646464"/>
<path d="M415.537 69.3603H407.637V67.6203H406.097V69.3603H398.257V70.6603H415.537V69.3603ZM402.237 73.0203H411.637V74.8403H402.237V73.0203ZM413.197 75.9203V71.9403H400.777V75.9203H413.197ZM415.797 80.7603H407.657V80.4403C409.837 79.8403 412.177 78.9203 413.857 77.8803L412.877 77.0803L412.517 77.1403H399.937V78.3603H410.377C409.337 78.8203 408.137 79.2603 406.997 79.5803H406.117V80.7603H398.077V82.0403H406.117V84.3403C406.117 84.6403 406.017 84.7003 405.637 84.7203C405.297 84.7203 403.937 84.7403 402.577 84.7003C402.777 85.0603 403.017 85.5603 403.097 85.9203C404.877 85.9203 406.037 85.9403 406.717 85.7603C407.417 85.5603 407.657 85.2003 407.657 84.3803V82.0403H415.797V80.7603ZM428.097 84.1003C426.697 84.1003 426.437 83.8603 426.437 82.8003V79.9003L435.577 78.7003L435.377 77.3203L426.437 78.4803V75.3603L434.237 74.2603L434.037 72.8803L426.437 73.9403V70.8403C429.017 70.3003 431.457 69.6803 433.357 68.9203L432.097 67.7603C429.017 69.0403 423.377 70.1203 418.437 70.7803C418.597 71.1003 418.817 71.7003 418.877 72.0603C420.837 71.8203 422.897 71.5003 424.917 71.1203V74.1603L418.797 75.0003L419.017 76.4003L424.917 75.5803V78.6803L418.177 79.5603L418.397 80.9603L424.917 80.1003V82.7603C424.917 84.9603 425.617 85.5403 428.017 85.5403H433.117C435.317 85.5403 435.817 84.6603 436.077 81.9003C435.617 81.7803 434.997 81.5603 434.617 81.2803C434.457 83.5803 434.257 84.1003 433.077 84.1003H428.097ZM445.117 75.3003L442.197 75.9203V73.8203C443.117 72.9403 444.097 71.7403 444.897 70.5203V71.7003H449.137C448.517 72.6403 447.637 73.7603 446.857 74.6403C446.557 74.3803 446.257 74.1403 445.957 73.9203L445.037 74.9003C446.137 75.7803 447.437 76.9803 448.297 77.9603C447.017 78.9003 445.637 79.7203 444.237 80.3403C444.557 80.6403 444.977 81.1003 445.197 81.4603C448.717 79.8003 452.077 77.0003 454.097 73.8403L452.757 73.2803C451.937 74.6003 450.797 75.8803 449.457 77.0203C449.017 76.5603 448.457 76.0203 447.837 75.4803C448.797 74.4803 449.937 73.1203 450.817 71.9203L450.357 71.7003H455.977V70.3203H451.117V67.6203H449.657V70.3203H445.037C445.237 70.0203 445.417 69.7203 445.577 69.4203L444.557 68.7603L444.277 68.8403H438.197V70.2203H443.297C442.717 71.1403 441.957 72.1403 441.237 72.8603H440.757V76.2203C439.577 76.4603 438.497 76.6803 437.617 76.8403L437.977 78.2403C438.797 78.0603 439.737 77.8603 440.757 77.6203V84.0803C440.757 84.3203 440.697 84.4003 440.437 84.4003C440.157 84.4003 439.317 84.4003 438.357 84.3803C438.577 84.8003 438.777 85.4603 438.837 85.8803C440.077 85.8803 440.937 85.8403 441.477 85.6003C442.037 85.3403 442.197 84.9003 442.197 84.0803V77.3003C443.197 77.0803 444.217 76.8603 445.217 76.6403L445.117 75.3003ZM454.297 77.0003C452.197 80.3203 448.277 83.1203 444.057 84.6403C444.437 84.9803 444.817 85.5003 445.037 85.8603C447.257 84.9803 449.377 83.7803 451.217 82.3203C452.617 83.5003 454.217 84.9403 455.017 85.9203L456.217 84.8203C455.377 83.8603 453.757 82.4603 452.357 81.3603C453.617 80.2403 454.717 78.9803 455.597 77.6403L454.297 77.0003ZM460.579 84.3603H458.704V70.1415H460.579V84.3603ZM464.016 84.3603V70.1415H468.03C469.267 70.1415 470.361 70.4149 471.311 70.9618C472.262 71.5087 472.994 72.2867 473.508 73.2958C474.029 74.3049 474.293 75.4638 474.299 76.7724V77.6806C474.299 79.0217 474.039 80.1968 473.518 81.206C473.004 82.2151 472.265 82.9898 471.301 83.5302C470.344 84.0705 469.228 84.3472 467.952 84.3603H464.016ZM465.891 71.6845V82.8271H467.864C469.309 82.8271 470.432 82.3778 471.233 81.4794C472.04 80.581 472.444 79.3017 472.444 77.6415V76.8114C472.444 75.1968 472.063 73.9436 471.301 73.0517C470.546 72.1532 469.472 71.6975 468.079 71.6845H465.891ZM483.251 77.5603L483.051 76.1803L480.731 76.8803V73.0203H483.031V71.6603H480.731V67.6403H479.271V71.6603H476.431V73.0203H479.271V77.3003C478.091 77.6403 477.011 77.9403 476.151 78.1603L476.551 79.6003L479.271 78.7803V84.1403C479.271 84.4403 479.171 84.5203 478.911 84.5203C478.651 84.5403 477.831 84.5403 476.931 84.5203C477.131 84.8803 477.311 85.5003 477.371 85.8603C478.711 85.8803 479.511 85.8403 480.031 85.6203C480.531 85.3803 480.731 84.9603 480.731 84.1403V78.3403L483.251 77.5603ZM494.651 74.3403H485.911V70.6803C488.631 70.3003 491.771 69.7603 493.871 69.0203L492.771 67.8603C491.131 68.4403 488.391 69.0003 485.871 69.4003L484.431 69.1403V75.5003C484.431 78.4203 484.171 82.0803 481.751 84.7203C482.111 84.9203 482.651 85.4403 482.851 85.7603C485.491 82.9003 485.891 78.8203 485.911 75.7603H489.851V85.8603H491.311V75.7603H494.651V74.3403ZM509.031 70.9603H506.831V69.7803H509.031V70.9603ZM512.471 71.9403V73.8603H510.271V71.9403H512.471ZM506.831 71.9403H509.031V73.8603H506.831V71.9403ZM503.471 71.9403H505.611V73.8603H503.471V71.9403ZM505.611 70.9603H502.171V74.8203H513.811V70.9603H510.271V69.7803H514.431V68.6403H501.711V69.7803H505.611V70.9603ZM503.971 80.8403H512.151V82.0203H503.971V80.8403ZM503.971 78.7803H512.151V79.9203H503.971V78.7803ZM503.971 76.7403H512.151V77.8603H503.971V76.7403ZM513.591 82.9603V75.7803H502.591V82.9603H513.591ZM500.191 67.7403C499.231 70.8203 497.651 73.8603 495.931 75.8603C496.171 76.2203 496.571 77.0003 496.711 77.3603C497.371 76.5803 497.991 75.6803 498.591 74.6803V85.8803H500.011V72.0203C500.611 70.7603 501.131 69.4403 501.571 68.1203L500.191 67.7403ZM505.771 83.1003C504.731 83.7603 502.811 84.5203 501.071 84.9003C501.351 85.1603 501.711 85.6203 501.911 85.9003C503.671 85.4803 505.631 84.7003 506.851 83.8403L505.771 83.1003ZM509.031 83.9603C510.751 84.5603 512.511 85.3403 513.531 85.9403L514.791 85.0603C513.651 84.4803 511.731 83.7203 509.991 83.1203L509.031 83.9603ZM520.511 78.4803C521.231 77.8203 521.871 77.1003 522.451 76.3203H528.651C529.211 77.1003 529.831 77.8403 530.531 78.4803H520.511ZM526.651 72.6803C526.971 73.4603 527.331 74.2203 527.751 74.9403H523.351C523.791 74.2203 524.171 73.4603 524.511 72.6803H526.651ZM534.331 76.3203V74.9403H529.371C528.891 74.2203 528.471 73.4603 528.111 72.6803H533.171V71.3603H529.631C530.251 70.5603 530.971 69.4803 531.571 68.4403L530.111 67.9403C529.691 68.9003 528.871 70.2403 528.231 71.0803L528.951 71.3603H525.031C525.431 70.2403 525.751 69.0803 526.031 67.8803L524.511 67.6003C524.251 68.9003 523.911 70.1603 523.451 71.3603H521.411L522.251 71.0003C521.931 70.1803 521.151 68.9203 520.411 68.0203L519.151 68.4803C519.831 69.3403 520.511 70.5203 520.851 71.3603H517.911V72.6803H522.891C522.531 73.4603 522.091 74.2203 521.611 74.9403H516.631V76.3203H520.551C519.411 77.6403 517.991 78.7603 516.231 79.6203C516.551 79.9003 516.971 80.4603 517.171 80.7803C518.251 80.2403 519.211 79.5803 520.071 78.8603V79.8203H523.491C522.991 82.1403 521.791 83.8203 518.051 84.6803C518.331 84.9603 518.751 85.5803 518.891 85.9203C523.071 84.8003 524.471 82.7603 525.031 79.8203H529.131C528.911 82.7803 528.691 83.9803 528.331 84.3403C528.131 84.5203 527.951 84.5403 527.591 84.5403C527.211 84.5403 526.171 84.5403 525.111 84.4403C525.371 84.8003 525.531 85.4003 525.571 85.8203C526.651 85.8803 527.711 85.8803 528.231 85.8403C528.851 85.8003 529.211 85.6603 529.571 85.2803C530.111 84.7003 530.411 83.1203 530.671 79.1203C530.691 79.0003 530.711 78.8003 530.711 78.6603C531.631 79.5003 532.651 80.2003 533.751 80.7203C533.931 80.3403 534.391 79.7803 534.731 79.5003C533.111 78.8003 531.651 77.7003 530.431 76.3203H534.331Z" fill="#646464"/>
<g clip-path="url(#clip0_27:13)">
<path fill-rule="evenodd" clip-rule="evenodd" d="M441.824 13.3808C441.663 12.0953 442.575 10.923 443.861 10.7624L462.481 8.43586C463.099 8.35873 463.721 8.52998 464.212 8.91195L490.396 29.2796C491.419 30.075 491.603 31.5487 490.808 32.5713L474.514 53.5185C473.718 54.541 472.244 54.7252 471.222 53.9298L445.038 33.5621C444.547 33.1802 444.228 32.6188 444.15 32.0015L441.824 13.3808ZM446.77 15.1267L448.685 30.4557L472.251 48.7866L485.664 31.5423L462.099 13.2115L446.77 15.1267Z" fill="#646464"/>
<path d="M459.426 21.8192C459.667 23.7474 458.299 25.5059 456.371 25.7468C454.442 25.9877 452.684 24.6199 452.443 22.6916C452.202 20.7634 453.57 19.005 455.498 18.764C457.426 18.5231 459.185 19.891 459.426 21.8192Z" fill="#646464"/>
</g>
<g clip-path="url(#clip1_27:13)">
<path d="M91.5302 51.6029C90.4314 51.3331 88.4309 51.0026 86.5505 50.3415C83.5668 49.2936 80.7485 49.4532 77.7013 50.2942C75.0166 51.034 72.0873 51.3803 69.3165 51.1824C66.3985 50.9733 64.7695 48.4503 65.5466 45.689C67.7034 38.0189 72.5222 32.6109 80.1322 29.863C82.8713 28.8736 85.3838 29.9934 87.6335 31.3539C92.4614 34.2726 96.0726 38.3269 98.0867 43.6315C99.9671 48.592 97.7492 51.6614 91.5302 51.6029Z" fill="#646464"/>
<path d="M79.8719 20.9406C79.9421 23.7649 78.7074 25.9056 76.6661 26.506C74.7381 27.0704 72.6199 25.9956 71.1472 23.6143C69.6633 21.2172 69.0947 18.6538 70.0756 15.9172C71.188 12.8163 74.1378 11.9978 76.7409 14.0328C78.6213 15.5034 79.8039 18.1118 79.8719 20.9406Z" fill="#646464"/>
<path d="M84.3303 20.8596C84.3711 17.9993 85.4155 15.5865 87.7264 13.8595C90.112 12.0786 92.7786 12.8544 94.002 15.5685C95.4043 18.6829 94.1243 23.5647 91.349 25.584C89.9647 26.5914 88.4604 27.1378 86.8202 26.1956C84.7472 25.0083 84.3031 23.0295 84.3303 20.8596Z" fill="#646464"/>
<path d="M69.4978 30.2138C69.4978 32.9706 67.6401 35.0349 65.225 34.9629C62.4338 34.8797 59.8171 31.88 59.8149 28.7567C59.8126 26.1078 61.5503 24.066 63.8543 24.0098C66.7135 23.9401 69.4978 27.0005 69.4978 30.2138Z" fill="#646464"/>
<path d="M94.7021 30.2993C94.6613 27.077 97.4003 23.9761 100.259 24.0099C102.604 24.0391 104.349 26.0134 104.383 28.6758C104.424 31.8891 101.705 34.9653 98.8254 34.963C96.5281 34.9608 94.736 32.9347 94.7021 30.2993Z" fill="#646464"/>
</g>
<path d="M25.4652 70.5981H28.4252V72.0381H25.4652V70.5981ZM28.4252 74.6981H25.4652V73.2181H28.4252V74.6981ZM24.0252 74.6981H19.8052V75.8981H24.0252V77.3781H19.7052V78.5181H24.0252V80.0981H18.7852V81.3181H24.0252V83.4381H25.4652V81.3181H30.9252V80.0981H25.4652V78.5181H30.0652V77.3781H25.4652V75.8981H29.8652V73.2181H31.3652V72.0381H29.8652V69.4181H25.4652V67.9781H24.0252V69.4181H19.9452V70.5981H24.0252V72.0381H18.5252V73.2181H24.0252V74.6981ZM18.1452 74.7181L17.8652 74.7581H15.8052C16.7252 72.8581 17.7052 70.8381 18.3452 69.3181L17.3252 69.0181L17.0852 69.0981H13.1252V70.4181H16.3452C15.5452 72.1781 14.3852 74.5981 13.3852 76.4781L14.7452 76.8581L15.1452 76.0781H17.4652C17.2252 77.8381 16.8452 79.3581 16.3252 80.6381C15.7852 79.8381 15.3452 78.8581 14.9852 77.6581L13.8252 78.0981C14.3252 79.7181 14.9452 80.9981 15.6852 81.9981C14.9652 83.3381 14.0452 84.3581 12.9652 85.0781C13.3052 85.2781 13.8652 85.8181 14.0852 86.1181C15.1052 85.3981 15.9852 84.4181 16.7052 83.1381C18.8052 85.0781 21.6852 85.5581 25.3052 85.5581H30.8852C30.9852 85.1181 31.2652 84.4581 31.5052 84.0981C30.4652 84.1181 26.1652 84.1181 25.3452 84.1181C22.0252 84.1181 19.3052 83.6981 17.3652 81.8581C18.1452 80.0381 18.7052 77.7381 19.0052 74.9381L18.1452 74.7181ZM50.5652 71.7381H42.9452V67.8381H41.4252V71.7381H34.0052V73.1781H50.5652V71.7381ZM40.0252 82.3981C39.8652 80.1581 39.1252 76.8581 38.0652 74.2381L36.6852 74.5981C37.6652 77.1781 38.4252 80.5581 38.5252 82.7581L40.0252 82.3981ZM44.9852 83.7581C45.9452 81.2381 47.0652 77.4781 47.8252 74.4381L46.1452 74.1181C45.5652 77.0581 44.4452 81.1981 43.4452 83.7581H33.3452V85.2181H51.1452V83.7581H44.9852ZM62.9052 77.0981H65.6452L65.1652 77.5181C65.6452 77.6781 66.1652 77.8981 66.6852 78.1381L62.9052 78.1981V77.0981ZM56.7452 76.0981V74.8581H61.4652V76.0981H56.7452ZM56.7452 72.6981H61.4652V73.8981H56.7452V72.6981ZM67.7652 72.6981V73.8981H62.9052V72.6981H67.7652ZM67.7652 76.0981H62.9052V74.8581H67.7652V76.0981ZM71.2452 80.4181H66.4852V79.1381L68.4652 79.0781C68.9052 79.3581 69.3052 79.6381 69.6052 79.8781L70.4852 79.0381C69.6852 78.4181 68.2652 77.6381 66.9052 77.0981H69.2252V71.6781H62.9052V70.5581H70.4452V69.3581H62.9052V67.8581H61.4652V69.3581H53.8052V70.5581H61.4652V71.6781H55.3452V77.0981H61.4652V78.1981C58.6052 78.2381 55.9852 78.2581 54.0052 78.2581L54.0652 79.4181C56.9452 79.3781 60.9452 79.2981 65.0452 79.1781V80.4181H53.2252V81.6381H57.3652L56.3852 82.4781C57.5852 83.2181 58.9852 84.2981 59.6852 85.0781L60.7452 84.0981C60.0452 83.3581 58.6452 82.3181 57.4652 81.6381H65.0452V84.4581C65.0452 84.7181 64.9452 84.7981 64.6452 84.8181C64.3252 84.8381 63.2052 84.8381 61.9852 84.7981C62.1852 85.1581 62.4052 85.6981 62.4652 86.0781C64.0652 86.0781 65.0652 86.0781 65.6852 85.8581C66.3252 85.6581 66.4852 85.2581 66.4852 84.4981V81.6381H71.2452V80.4181ZM88.5852 69.8781V71.1581H76.4252V69.8781H88.5852ZM76.4252 72.1981H90.0052V68.8381H74.9852V74.6181C74.9852 77.7781 74.8252 82.1781 72.9052 85.2981C73.2652 85.4381 73.8852 85.7981 74.1652 86.0181C76.1452 82.7781 76.4252 77.9581 76.4252 74.6181V72.1981ZM85.2852 75.1581H89.8052V74.3981H85.2852V75.1581ZM85.3252 72.8581V73.6381H89.7252V72.8581H85.3252ZM84.2452 75.4981V72.5381H82.8652V75.4981H84.2452ZM77.4852 75.1581H81.7652V74.3981H77.4852V75.1581ZM77.5252 72.8581V73.6381H81.7252V72.8581H77.5252ZM86.7052 83.3181V80.8981H83.0252V80.1181H88.9652C88.7852 83.2781 88.5652 84.4781 88.3052 84.8181C88.1852 84.9781 88.0452 84.9981 87.8052 84.9981C87.7052 84.9981 87.5452 84.9981 87.3452 84.9981C86.9652 84.4981 86.2452 83.8181 85.5852 83.3181H86.7052ZM83.0252 83.3181H85.2652L84.5652 83.6781C84.7252 83.7981 84.8852 83.9381 85.0452 84.0781L83.0252 84.1581V83.3181ZM85.5252 82.5581H83.0252V81.6381H85.5252V82.5581ZM79.3252 82.5581V81.6381H81.7452V82.5581H79.3252ZM81.7452 80.1181V80.8981H78.8852C79.1852 80.6381 79.4452 80.3781 79.7052 80.1181H81.7452ZM78.5652 76.7181H81.0452V77.7181H78.5652V76.7181ZM82.2452 76.7181H84.8452V77.7181H82.2452V76.7181ZM86.0252 76.7181H88.6652V77.7181H86.0252V76.7181ZM80.5052 79.1781C80.6852 78.9381 80.8452 78.7181 81.0052 78.4781H89.9252V75.9581H77.3252V78.4781H79.4852C78.7052 79.5181 77.5052 80.6581 75.9052 81.5381C76.2052 81.7181 76.6652 82.0981 76.8652 82.3981C77.3452 82.0981 77.7852 81.7981 78.1852 81.4781V83.3181H81.7452V84.2181C79.9652 84.2781 78.3252 84.3181 77.0452 84.3581L77.1452 85.4181C79.4852 85.3181 82.7452 85.1581 85.9452 84.9781C86.1452 85.1981 86.3252 85.3981 86.4452 85.5781L86.6452 85.4581C86.6852 85.6781 86.7252 85.8781 86.7452 86.0581C87.4052 86.0781 88.0452 86.0781 88.4252 86.0381C88.8652 86.0181 89.1852 85.8981 89.4652 85.5781C89.9052 85.0581 90.1252 83.6581 90.3252 79.7581C90.3452 79.5581 90.3652 79.1781 90.3652 79.1781H80.5052ZM103.405 84.2981C102.005 84.2981 101.745 84.0581 101.745 82.9981V80.0981L110.885 78.8981L110.685 77.5181L101.745 78.6781V75.5581L109.545 74.4581L109.345 73.0781L101.745 74.1381V71.0381C104.325 70.4981 106.765 69.8781 108.665 69.1181L107.405 67.9581C104.325 69.2381 98.6852 70.3181 93.7452 70.9781C93.9052 71.2981 94.1252 71.8981 94.1852 72.2581C96.1452 72.0181 98.2052 71.6981 100.225 71.3181V74.3581L94.1052 75.1981L94.3252 76.5981L100.225 75.7781V78.8781L93.4852 79.7581L93.7052 81.1581L100.225 80.2981V82.9581C100.225 85.1581 100.925 85.7381 103.325 85.7381H108.425C110.625 85.7381 111.125 84.8581 111.385 82.0981C110.925 81.9781 110.305 81.7581 109.925 81.4781C109.765 83.7781 109.565 84.2981 108.385 84.2981H103.405ZM120.425 75.4981L117.505 76.1181V74.0181C118.425 73.1381 119.405 71.9381 120.205 70.7181V71.8981H124.445C123.825 72.8381 122.945 73.9581 122.165 74.8381C121.865 74.5781 121.565 74.3381 121.265 74.1181L120.345 75.0981C121.445 75.9781 122.745 77.1781 123.605 78.1581C122.325 79.0981 120.945 79.9181 119.545 80.5381C119.865 80.8381 120.285 81.2981 120.505 81.6581C124.025 79.9981 127.385 77.1981 129.405 74.0381L128.065 73.4781C127.245 74.7981 126.105 76.0781 124.765 77.2181C124.325 76.7581 123.765 76.2181 123.145 75.6781C124.105 74.6781 125.245 73.3181 126.125 72.1181L125.665 71.8981H131.285V70.5181H126.425V67.8181H124.965V70.5181H120.345C120.545 70.2181 120.725 69.9181 120.885 69.6181L119.865 68.9581L119.585 69.0381H113.505V70.4181H118.605C118.025 71.3381 117.265 72.3381 116.545 73.0581H116.065V76.4181C114.885 76.6581 113.805 76.8781 112.925 77.0381L113.285 78.4381C114.105 78.2581 115.045 78.0581 116.065 77.8181V84.2781C116.065 84.5181 116.005 84.5981 115.745 84.5981C115.465 84.5981 114.625 84.5981 113.665 84.5781C113.885 84.9981 114.085 85.6581 114.145 86.0781C115.385 86.0781 116.245 86.0381 116.785 85.7981C117.345 85.5381 117.505 85.0981 117.505 84.2781V77.4981C118.505 77.2781 119.525 77.0581 120.525 76.8381L120.425 75.4981ZM129.605 77.1981C127.505 80.5181 123.585 83.3181 119.365 84.8381C119.745 85.1781 120.125 85.6981 120.345 86.0581C122.565 85.1781 124.685 83.9781 126.525 82.5181C127.925 83.6981 129.525 85.1381 130.325 86.1181L131.525 85.0181C130.685 84.0581 129.065 82.6581 127.665 81.5581C128.925 80.4381 130.025 79.1781 130.905 77.8381L129.605 77.1981ZM135.887 84.5581H134.012V70.3394H135.887V84.5581ZM139.325 84.5581V70.3394H143.339C144.575 70.3394 145.669 70.6128 146.62 71.1597C147.57 71.7065 148.303 72.4845 148.817 73.4937C149.338 74.5028 149.602 75.6616 149.608 76.9702V77.8784C149.608 79.2196 149.348 80.3947 148.827 81.4038C148.312 82.4129 147.574 83.1877 146.61 83.728C145.653 84.2684 144.536 84.5451 143.26 84.5581H139.325ZM141.2 71.8823V83.0249H143.173C144.618 83.0249 145.741 82.5757 146.542 81.6772C147.349 80.7788 147.753 79.4995 147.753 77.8394V77.0093C147.753 75.3947 147.372 74.1414 146.61 73.2495C145.855 72.3511 144.781 71.8953 143.387 71.8823H141.2Z" fill="#646464"/>
<path d="M668.917 37.0417L682.667 48.5L668.917 59.9583L668.917 37.0417Z" fill="#999999"/>
<path d="M259.917 37.0417L273.667 48.5L259.917 59.9583L259.917 37.0417Z" fill="#999999"/>
<defs>
<clipPath id="clip0_27:13">
<rect width="56.2963" height="56.2963" fill="white" transform="translate(436.296 6.97968) rotate(-7.12189)"/>
</clipPath>
<clipPath id="clip1_27:13">
<rect width="44.5679" height="38.7037" fill="white" transform="translate(59.8149 12.9012)"/>
</clipPath>
</defs>
</svg>
