<svg width="208" height="223" viewBox="0 0 208 223" fill="none" xmlns="http://www.w3.org/2000/svg">
<g clip-path="url(#clip0_5:2)">
<path d="M190.027 4.76941C190.543 5.32976 191.543 6.25899 192.352 7.33072C193.636 9.03065 195.279 9.98591 197.305 10.6405C199.089 11.2179 200.864 12.1087 202.346 13.2486C203.907 14.4495 203.879 16.4816 202.41 17.7559C198.332 21.2961 193.604 22.5687 188.302 21.3003C186.394 20.844 185.401 19.2782 184.646 17.6737C183.026 14.2309 182.513 10.5969 183.364 6.84788C184.162 3.34317 186.555 2.42911 190.027 4.76941Z" fill="#959595"/>
<path d="M185.113 26.446C186.13 24.8217 187.623 24.0684 188.994 24.486C190.288 24.8819 191.076 26.276 191.013 28.1699C190.951 30.0769 190.312 31.7385 188.738 32.9231C186.954 34.2652 184.991 33.634 184.29 31.5166C183.784 29.9868 184.094 28.072 185.113 26.446Z" fill="#959595"/>
<path d="M182.579 24.8378C181.487 26.4413 179.998 27.4192 178.055 27.5391C176.049 27.6618 174.842 26.2335 175.169 24.2438C175.545 21.9611 178.089 19.6735 180.403 19.5604C181.557 19.5039 182.606 19.7528 183.175 20.8945C183.896 22.3354 183.405 23.62 182.579 24.8378Z" fill="#959595"/>
<path d="M194.406 25.0472C195.437 23.4872 197.252 23.0083 198.581 23.945C200.118 25.0276 200.466 27.6959 199.3 29.4642C198.311 30.964 196.572 31.4747 195.257 30.6517C193.625 29.6304 193.205 26.8656 194.406 25.0472Z" fill="#959595"/>
<path d="M180.282 15.6481C179.1 17.4866 176.403 18.2252 174.81 17.1454C173.504 16.2589 173.262 14.4945 174.238 12.9753C175.416 11.1418 178.093 10.4096 179.709 11.4792C180.999 12.3328 181.248 14.1441 180.282 15.6481Z" fill="#959595"/>
</g>
<g clip-path="url(#clip1_5:2)">
<path d="M189.18 58.5449C189.696 59.1053 190.696 60.0345 191.505 61.1062C192.789 62.8062 194.432 63.7614 196.458 64.416C198.242 64.9934 200.017 65.8842 201.499 67.0241C203.06 68.225 203.032 70.2571 201.563 71.5314C197.485 75.0716 192.757 76.3441 187.456 75.0758C185.547 74.6195 184.555 73.0537 183.8 71.4492C182.179 68.0064 181.666 64.3724 182.518 60.6234C183.316 57.1187 185.709 56.2046 189.18 58.5449Z" fill="#959595"/>
<path d="M184.267 80.2215C185.283 78.5972 186.777 77.8439 188.148 78.2615C189.441 78.6574 190.229 80.0515 190.166 81.9454C190.104 83.8524 189.465 85.514 187.891 86.6986C186.107 88.0407 184.145 87.4095 183.443 85.2921C182.937 83.7623 183.248 81.8475 184.267 80.2215Z" fill="#959595"/>
<path d="M181.732 78.6133C180.64 80.2168 179.152 81.1946 177.208 81.3146C175.203 81.4373 173.995 80.009 174.322 78.0193C174.699 75.7366 177.243 73.449 179.556 73.3359C180.71 73.2794 181.759 73.5283 182.328 74.67C183.049 76.1109 182.559 77.3955 181.732 78.6133Z" fill="#959595"/>
<path d="M193.56 78.8227C194.59 77.2627 196.405 76.7838 197.735 77.7205C199.271 78.8031 199.62 81.4714 198.454 83.2397C197.465 84.7395 195.725 85.2502 194.41 84.4272C192.778 83.4059 192.359 80.6411 193.56 78.8227Z" fill="#959595"/>
<path d="M179.435 69.4236C178.254 71.2621 175.556 72.0007 173.963 70.9209C172.657 70.0344 172.415 68.27 173.391 66.7508C174.569 64.9173 177.246 64.1851 178.863 65.2547C180.152 66.1083 180.401 67.9196 179.435 69.4236Z" fill="#959595"/>
</g>
<g clip-path="url(#clip2_5:2)">
<path d="M135.06 68.4968C135.576 69.0572 136.576 69.9864 137.385 71.0581C138.67 72.7581 140.312 73.7133 142.338 74.3679C144.122 74.9453 145.897 75.8361 147.379 76.976C148.94 78.1769 148.912 80.209 147.443 81.4833C143.365 85.0235 138.637 86.2961 133.336 85.0277C131.427 84.5714 130.435 83.0056 129.68 81.4011C128.059 77.9583 127.546 74.3243 128.398 70.5753C129.196 67.0706 131.589 66.1565 135.06 68.4968Z" fill="#959595"/>
<path d="M130.147 90.1734C131.163 88.5491 132.657 87.7958 134.028 88.2134C135.322 88.6093 136.11 90.0034 136.047 91.8973C135.984 93.8043 135.345 95.4659 133.771 96.6505C131.988 97.9926 130.025 97.3614 129.323 95.244C128.817 93.7142 129.128 91.7994 130.147 90.1734Z" fill="#959595"/>
<path d="M127.612 88.5652C126.52 90.1687 125.032 91.1466 123.088 91.2665C121.083 91.3892 119.875 89.9609 120.202 87.9712C120.579 85.6885 123.123 83.4009 125.436 83.2878C126.59 83.2313 127.639 83.4802 128.209 84.6219C128.929 86.0628 128.439 87.3474 127.612 88.5652Z" fill="#959595"/>
<path d="M139.44 88.7746C140.47 87.2146 142.285 86.7357 143.615 87.6724C145.151 88.755 145.5 91.4233 144.334 93.1916C143.345 94.6914 141.606 95.2021 140.29 94.3791C138.659 93.3578 138.239 90.593 139.44 88.7746Z" fill="#959595"/>
<path d="M125.315 79.3755C124.134 81.214 121.436 81.9526 119.843 80.8728C118.537 79.9863 118.295 78.2219 119.271 76.7027C120.45 74.8692 123.126 74.137 124.743 75.2066C126.032 76.0602 126.281 77.8715 125.315 79.3755Z" fill="#959595"/>
</g>
<g clip-path="url(#clip3_5:2)">
<path d="M156.573 126.404C157.089 126.964 158.089 127.893 158.899 128.965C160.183 130.665 161.825 131.62 163.851 132.275C165.636 132.852 167.41 133.743 168.893 134.883C170.453 136.084 170.425 138.116 168.957 139.39C164.878 142.93 160.15 144.203 154.849 142.934C152.941 142.478 151.948 140.912 151.193 139.308C149.572 135.865 149.059 132.231 149.911 128.482C150.709 124.977 153.102 124.063 156.573 126.404Z" fill="#959595"/>
<path d="M151.66 148.08C152.676 146.456 154.17 145.703 155.541 146.12C156.835 146.516 157.623 147.91 157.56 149.804C157.497 151.711 156.858 153.373 155.285 154.557C153.501 155.899 151.538 155.268 150.837 153.151C150.33 151.621 150.641 149.706 151.66 148.08Z" fill="#959595"/>
<path d="M149.126 146.472C148.034 148.075 146.545 149.053 144.602 149.173C142.596 149.296 141.388 147.868 141.716 145.878C142.092 143.595 144.636 141.308 146.949 141.195C148.103 141.138 149.153 141.387 149.722 142.529C150.442 143.97 149.952 145.254 149.126 146.472Z" fill="#959595"/>
<path d="M160.953 146.681C161.983 145.121 163.798 144.642 165.128 145.579C166.665 146.662 167.013 149.33 165.847 151.098C164.858 152.598 163.119 153.109 161.804 152.286C160.172 151.265 159.752 148.5 160.953 146.681Z" fill="#959595"/>
<path d="M146.829 137.282C145.647 139.121 142.95 139.859 141.356 138.78C140.05 137.893 139.808 136.129 140.785 134.609C141.963 132.776 144.64 132.044 146.256 133.113C147.545 133.967 147.795 135.778 146.829 137.282Z" fill="#959595"/>
</g>
<g clip-path="url(#clip4_5:2)">
<path d="M100.843 137.567C101.051 138.3 101.526 139.58 101.766 140.901C102.147 142.997 103.184 144.59 104.698 146.086C106.032 147.405 107.215 149 108.026 150.685C108.878 152.46 107.938 154.262 106.053 154.738C100.818 156.063 96.0233 155.071 91.8606 151.552C90.3621 150.285 90.1807 148.44 90.2289 146.668C90.3318 142.864 91.5099 139.388 93.9581 136.424C96.2486 133.654 98.7969 133.915 100.843 137.567Z" fill="#959595" fill-opacity="0.5"/>
<path d="M86.6966 154.711C88.3353 153.718 90.0082 153.718 91.0443 154.708C92.0214 155.644 92.0974 157.243 91.1885 158.906C90.2741 160.581 88.9556 161.777 87.0169 162.126C84.8199 162.521 83.3515 161.074 83.6784 158.868C83.915 157.274 85.0545 155.704 86.6966 154.711Z" fill="#959595" fill-opacity="0.5"/>
<path d="M85.1575 152.134C83.4605 153.074 81.6912 153.277 79.9018 152.509C78.0557 151.716 77.6204 149.897 78.8085 148.267C80.1723 146.398 83.4736 145.501 85.5903 146.442C86.6462 146.911 87.471 147.605 87.4651 148.881C87.4598 150.492 86.4437 151.418 85.1575 152.134Z" fill="#959595" fill-opacity="0.5"/>
<path d="M95.6241 157.646C97.2466 156.716 99.0829 157.106 99.8484 158.541C100.733 160.199 99.8429 162.739 98.0054 163.793C96.4472 164.687 94.6643 164.36 93.8606 163.033C92.8632 161.386 93.733 158.728 95.6241 157.646Z" fill="#959595" fill-opacity="0.5"/>
<path d="M87.2439 142.894C85.3611 144.004 82.62 143.449 81.6835 141.767C80.9163 140.388 81.4948 138.703 83.0503 137.786C84.9278 136.679 87.6476 137.231 88.6094 138.914C89.3765 140.256 88.7836 141.986 87.2439 142.894Z" fill="#959595" fill-opacity="0.5"/>
</g>
<g clip-path="url(#clip5_5:2)">
<path d="M83.643 189.96C83.8933 190.68 84.4404 191.931 84.7555 193.236C85.2562 195.307 86.3824 196.837 87.9797 198.245C89.3865 199.485 90.6594 201.009 91.5649 202.645C92.5181 204.368 91.6828 206.221 89.8281 206.805C84.677 208.427 79.8335 207.711 75.4762 204.436C73.9076 203.257 73.621 201.426 73.5676 199.653C73.4525 195.85 74.4297 192.312 76.7043 189.213C78.8323 186.316 81.3915 186.431 83.643 189.96Z" fill="#959595" fill-opacity="0.5"/>
<path d="M70.5015 207.885C72.0807 206.8 73.7508 206.705 74.8419 207.634C75.871 208.512 76.0384 210.105 75.2262 211.817C74.4092 213.541 73.1613 214.811 71.2458 215.27C69.075 215.791 67.5261 214.43 67.7263 212.208C67.8711 210.603 68.919 208.971 70.5015 207.885Z" fill="#959595" fill-opacity="0.5"/>
<path d="M68.8174 205.401C67.177 206.436 65.4222 206.74 63.5919 206.076C61.7034 205.39 61.1646 203.599 62.2575 201.904C63.5121 199.96 66.7565 198.875 68.9236 199.693C70.0047 200.101 70.8679 200.747 70.935 202.021C71.0219 203.63 70.0605 204.613 68.8174 205.401Z" fill="#959595" fill-opacity="0.5"/>
<path d="M79.5824 210.304C81.149 209.284 83.0046 209.568 83.851 210.957C84.8291 212.562 84.0858 215.148 82.3117 216.305C80.8072 217.287 79.0085 217.063 78.1301 215.784C77.0401 214.197 77.7563 211.494 79.5824 210.304Z" fill="#959595" fill-opacity="0.5"/>
<path d="M70.3714 196.057C68.5553 197.272 65.7868 196.875 64.7556 195.25C63.9108 193.917 64.3918 192.202 65.8923 191.197C67.7034 189.985 70.4503 190.38 71.5069 192.005C72.3496 193.301 71.8566 195.062 70.3714 196.057Z" fill="#959595" fill-opacity="0.5"/>
</g>
<path d="M27.3664 170.879C27.3566 171.605 27.444 172.906 27.2969 174.175C27.0643 176.19 27.5965 177.938 28.6091 179.737C29.5004 181.323 30.1715 183.116 30.4626 184.882C30.7687 186.742 29.3656 188.105 27.4414 187.989C22.0968 187.668 17.828 185.372 14.8756 180.964C13.8127 179.378 14.1639 177.65 14.7124 176.054C15.8889 172.63 17.9928 169.816 21.157 167.837C24.1164 165.988 26.4608 166.967 27.3664 170.879Z" fill="#959595" fill-opacity="0.5"/>
<path d="M8.87935 182.403C10.7255 181.977 12.3213 182.465 13.0274 183.672C13.6926 184.811 13.3091 186.293 11.9681 187.544C10.6184 188.805 9.0198 189.51 7.07094 189.262C4.86253 188.98 3.87442 187.23 4.81529 185.313C5.49533 183.928 7.02988 182.829 8.87935 182.403Z" fill="#959595" fill-opacity="0.5"/>
<path d="M8.23337 179.699C6.34654 180.061 4.60082 179.729 3.11283 178.505C1.57796 177.241 1.68125 175.454 3.27913 174.315C5.11288 173.009 8.5179 173.155 10.2689 174.633C11.1425 175.369 11.7312 176.244 11.362 177.406C10.8976 178.875 9.66424 179.423 8.23337 179.699Z" fill="#959595" fill-opacity="0.5"/>
<path d="M16.5421 187.58C18.3528 187.208 19.9917 188.099 20.3125 189.63C20.6832 191.399 19.1117 193.453 17.0606 193.877C15.3212 194.236 13.7153 193.418 13.3273 191.974C12.8458 190.183 14.4316 188.015 16.5421 187.58Z" fill="#959595" fill-opacity="0.5"/>
<path d="M12.9591 171.894C10.8489 172.356 8.39488 171.05 7.98134 169.244C7.64321 167.763 8.6741 166.397 10.4176 166.016C12.5219 165.556 14.9566 166.852 15.3939 168.667C15.7425 170.114 14.6849 171.517 12.9591 171.894Z" fill="#959595" fill-opacity="0.5"/>
<defs>
<clipPath id="clip0_5:2">
<rect width="30" height="26.2485" fill="white" transform="translate(193.374 38.4364) rotate(-146.554)"/>
</clipPath>
<clipPath id="clip1_5:2">
<rect width="30" height="26.2485" fill="white" transform="translate(192.527 92.2119) rotate(-146.554)"/>
</clipPath>
<clipPath id="clip2_5:2">
<rect width="30" height="26.2485" fill="white" transform="translate(138.407 102.164) rotate(-146.554)"/>
</clipPath>
<clipPath id="clip3_5:2">
<rect width="30" height="26.2485" fill="white" transform="translate(159.92 160.071) rotate(-146.554)"/>
</clipPath>
<clipPath id="clip4_5:2">
<rect width="30" height="26.2485" fill="white" transform="translate(88.6741 169.136) rotate(-119.796)"/>
</clipPath>
<clipPath id="clip5_5:2">
<rect width="30" height="26.2485" fill="white" transform="matrix(-0.545782 -0.837927 0.837926 -0.545784 73.3015 222.174)"/>
</clipPath>
</defs>
</svg>
