<svg width="181" height="165" viewBox="0 0 181 165" fill="none" xmlns="http://www.w3.org/2000/svg">
<g clip-path="url(#clip0_5:51)">
<path d="M134.184 2.45939C134.841 2.84499 136.068 3.44253 137.155 4.23204C138.878 5.48405 140.728 5.91925 142.857 5.95518C144.732 5.98758 146.689 6.32265 148.439 6.98124C150.282 7.6753 150.847 9.62738 149.814 11.2743C146.944 15.8492 142.792 18.4441 137.351 18.7755C135.393 18.895 133.987 17.6863 132.797 16.3714C130.244 13.5502 128.694 10.2232 128.416 6.3888C128.159 2.80364 130.181 1.23198 134.184 2.45939Z" fill="#959595" fill-opacity="0.5"/>
<path d="M135.8 24.627C136.299 22.7771 137.508 21.6212 138.941 21.6212C140.294 21.623 141.454 22.727 141.946 24.5571C142.442 26.3995 142.315 28.1752 141.154 29.767C139.839 31.5706 137.777 31.5386 136.489 29.7175C135.559 28.4017 135.299 26.4794 135.8 24.627Z" fill="#959595" fill-opacity="0.5"/>
<path d="M132.907 23.827C132.329 25.6791 131.19 27.0483 129.366 27.7292C127.483 28.431 125.912 27.4166 125.645 25.4178C125.34 23.1245 127.107 20.1949 129.287 19.4127C130.375 19.0224 131.451 18.9548 132.328 19.8811C133.437 21.0496 133.342 22.4212 132.907 23.827Z" fill="#959595" fill-opacity="0.5"/>
<path d="M144.282 20.5813C144.813 18.7887 146.41 17.8017 147.955 18.3104C149.74 18.8983 150.851 21.3493 150.25 23.3807C149.741 25.1035 148.227 26.0988 146.729 25.6947C144.87 25.1932 143.663 22.6707 144.282 20.5813Z" fill="#959595" fill-opacity="0.5"/>
<path d="M128.032 15.7052C127.437 17.8083 125.072 19.3008 123.233 18.732C121.726 18.2646 120.98 16.6472 121.471 14.9095C122.064 12.8122 124.411 11.3319 126.269 11.8841C127.752 12.3249 128.518 13.9851 128.032 15.7052Z" fill="#959595" fill-opacity="0.5"/>
</g>
<g clip-path="url(#clip1_5:51)">
<path d="M161.018 62.677C161.596 63.1729 162.698 63.9784 163.628 64.9478C165.102 66.4853 166.846 67.2412 168.934 67.6536C170.774 68.0176 172.641 68.694 174.247 69.6522C175.938 70.6617 176.148 72.683 174.839 74.1208C171.205 78.1151 166.659 79.9336 161.245 79.296C159.296 79.0668 158.127 77.6282 157.189 76.1234C155.175 72.8946 154.24 69.3458 154.645 65.5228C155.027 61.9486 157.296 60.7601 161.018 62.677Z" fill="#959595" fill-opacity="0.5"/>
<path d="M158.682 84.7803C159.501 83.048 160.896 82.1246 162.306 82.3785C163.637 82.6198 164.584 83.9118 164.743 85.8C164.905 87.7012 164.465 89.4263 163.041 90.7874C161.427 92.3295 159.404 91.933 158.459 89.9125C157.777 88.4527 157.861 86.5146 158.682 84.7803Z" fill="#959595" fill-opacity="0.5"/>
<path d="M155.976 83.4806C155.08 85.2011 153.716 86.3469 151.801 86.694C149.823 87.0512 148.456 85.7745 148.548 83.7601C148.654 81.449 150.912 78.8787 153.196 78.495C154.335 78.3035 155.406 78.4275 156.106 79.4946C156.99 80.841 156.654 82.1742 155.976 83.4806Z" fill="#959595" fill-opacity="0.5"/>
<path d="M167.747 82.3008C168.587 80.6307 170.333 79.9421 171.763 80.7163C173.416 81.6112 174.076 84.2201 173.125 86.1131C172.319 87.7185 170.652 88.4298 169.249 87.7668C167.508 86.944 166.767 84.2476 167.747 82.3008Z" fill="#959595" fill-opacity="0.5"/>
<path d="M152.617 74.6238C151.659 76.5883 149.067 77.6383 147.358 76.7529C145.957 76.0258 145.51 74.3019 146.301 72.6787C147.256 70.7196 149.828 69.6784 151.559 70.551C152.94 71.2473 153.4 73.0169 152.617 74.6238Z" fill="#959595" fill-opacity="0.5"/>
</g>
<g clip-path="url(#clip2_5:51)">
<path d="M97.7295 65.176C98.1171 65.832 98.9005 66.9499 99.4674 68.1672C100.367 70.0982 101.774 71.3761 103.618 72.4401C105.242 73.3781 106.791 74.6206 108.002 76.0454C109.277 77.5464 108.824 79.5275 107.121 80.4663C102.392 83.0747 97.5027 83.3297 92.5841 80.9801C90.8136 80.1346 90.1707 78.3957 89.7681 76.6688C88.9037 72.9631 89.1627 69.3021 90.7799 65.8143C92.2936 62.5542 94.825 62.1612 97.7295 65.176Z" fill="#959595" fill-opacity="0.5"/>
<path d="M88.3892 85.3446C89.7228 83.9689 91.3411 83.5449 92.5943 84.2401C93.7766 84.8979 94.2554 86.4261 93.7975 88.2648C93.3373 90.1165 92.365 91.6077 90.578 92.4368C88.5528 93.3758 86.7657 92.3479 86.5229 90.1306C86.3477 88.5287 87.0523 86.7213 88.3892 85.3446Z" fill="#959595" fill-opacity="0.5"/>
<path d="M86.2473 83.2416C84.8439 84.5811 83.1838 85.2258 81.2583 84.9364C79.2714 84.6368 78.3893 82.9874 79.1258 81.1102C79.9715 78.9568 82.9376 77.2521 85.2236 77.6257C86.3639 77.8119 87.3378 78.2749 87.6554 79.5104C88.0584 81.0702 87.3102 82.2237 86.2473 83.2416Z" fill="#959595" fill-opacity="0.5"/>
<path d="M97.769 85.9214C99.1031 84.6115 100.978 84.523 102.082 85.7172C103.358 87.0974 103.141 89.7795 101.63 91.2646C100.349 92.5243 98.5419 92.6598 97.4281 91.5798C96.046 90.2397 96.214 87.4482 97.769 85.9214Z" fill="#959595" fill-opacity="0.5"/>
<path d="M85.9243 73.7747C84.3842 75.3253 81.5918 75.4831 80.2598 74.0938C79.1681 72.9536 79.3009 71.1776 80.5733 69.8963C82.1091 68.3499 84.8798 68.1942 86.2367 69.5783C87.319 70.6828 87.1836 72.5062 85.9243 73.7747Z" fill="#959595" fill-opacity="0.5"/>
</g>
<g clip-path="url(#clip3_5:51)">
<path d="M93.189 134.288C93.3099 135.04 93.6302 136.367 93.7126 137.708C93.8441 139.834 94.6857 141.538 96.0129 143.202C97.1814 144.669 98.1687 146.392 98.7747 148.161C99.4124 150.024 98.2664 151.703 96.3383 151.954C90.983 152.652 86.3389 151.101 82.6203 147.116C81.2817 145.681 81.3192 143.828 81.5761 142.073C82.1269 138.308 83.7067 134.995 86.4874 132.341C89.0886 129.86 91.5883 130.42 93.189 134.288Z" fill="#959595" fill-opacity="0.5"/>
<path d="M77.1199 149.644C78.8642 148.851 80.5254 149.048 81.4376 150.153C82.2974 151.198 82.1842 152.796 81.0856 154.34C79.98 155.895 78.5297 156.927 76.5634 157.045C74.335 157.178 73.0476 155.568 73.6325 153.416C74.0553 151.861 75.3721 150.436 77.1199 149.644Z" fill="#959595" fill-opacity="0.5"/>
<path d="M75.8954 146.903C74.0994 147.636 72.3185 147.629 70.6322 146.656C68.8925 145.65 68.6747 143.793 70.0467 142.315C71.6214 140.62 75.0055 140.118 76.9965 141.302C77.9897 141.892 78.7268 142.679 78.5705 143.945C78.3752 145.544 77.257 146.344 75.8954 146.903Z" fill="#959595" fill-opacity="0.5"/>
<path d="M85.6389 153.611C87.3597 152.88 89.1372 153.483 89.7281 154.998C90.411 156.749 89.2275 159.166 87.2786 159.996C85.6259 160.7 83.894 160.165 83.2523 158.753C82.4561 157 83.6333 154.463 85.6389 153.611Z" fill="#959595" fill-opacity="0.5"/>
<path d="M79.057 137.974C77.0565 138.854 74.3999 137.979 73.6682 136.199C73.0692 134.739 73.8422 133.134 75.495 132.407C77.49 131.53 80.1257 132.398 80.8824 134.182C81.4858 135.606 80.693 137.254 79.057 137.974Z" fill="#959595" fill-opacity="0.5"/>
</g>
<g clip-path="url(#clip4_5:51)">
<path d="M26.8644 114.537C27.0988 115.262 27.6182 116.525 27.9045 117.837C28.3594 119.918 29.4516 121.473 31.0175 122.915C32.3966 124.186 33.6357 125.738 34.5049 127.394C35.4198 129.137 34.5439 130.971 32.6768 131.514C27.4912 133.023 22.6646 132.2 18.3805 128.829C16.8383 127.616 16.5921 125.779 16.5778 124.006C16.5466 120.201 17.6016 116.685 19.9439 113.637C22.1353 110.788 24.6913 110.959 26.8644 114.537Z" fill="#959595" fill-opacity="0.5"/>
<path d="M13.331 132.168C14.9337 131.118 16.6056 131.059 17.6759 132.012C18.6854 132.913 18.8176 134.509 17.9679 136.203C17.1131 137.909 15.8375 139.151 13.9123 139.568C11.7306 140.04 10.2121 138.646 10.4612 136.429C10.6414 134.828 11.7249 133.219 13.331 132.168Z" fill="#959595" fill-opacity="0.5"/>
<path d="M11.7021 129.647C10.0393 130.646 8.2782 130.912 6.46292 130.207C4.59002 129.479 4.09084 127.677 5.22083 126.007C6.51798 124.091 9.78558 123.078 11.9341 123.943C13.0059 124.375 13.8546 125.04 13.8937 126.315C13.9451 127.925 12.9623 128.887 11.7021 129.647Z" fill="#959595" fill-opacity="0.5"/>
<path d="M22.3564 134.787C23.9451 133.801 25.794 134.126 26.6095 135.533C27.5521 137.159 26.7519 139.728 24.9527 140.846C23.427 141.795 21.6337 141.531 20.7837 140.233C19.7289 138.623 20.5046 135.936 22.3564 134.787Z" fill="#959595" fill-opacity="0.5"/>
<path d="M13.4617 120.34C11.6192 121.515 8.86021 121.057 7.86505 119.409C7.0498 118.058 7.56855 116.354 9.09081 115.383C10.9282 114.211 13.6657 114.666 14.6862 116.314C15.5001 117.628 14.9685 119.378 13.4617 120.34Z" fill="#959595" fill-opacity="0.5"/>
</g>
<defs>
<clipPath id="clip0_5:51">
<rect width="30" height="26.2485" fill="white" transform="translate(147.195 33.6904) rotate(-163.494)"/>
</clipPath>
<clipPath id="clip1_5:51">
<rect width="30" height="26.2485" fill="white" transform="translate(168.292 95.7188) rotate(-153.292)"/>
</clipPath>
<clipPath id="clip2_5:51">
<rect width="30" height="26.2485" fill="white" transform="translate(93.9574 98.7981) rotate(-134.475)"/>
</clipPath>
<clipPath id="clip3_5:51">
<rect width="30" height="26.2485" fill="white" transform="translate(77.3822 164.202) rotate(-113.023)"/>
</clipPath>
<clipPath id="clip4_5:51">
<rect width="30" height="26.2485" fill="white" transform="translate(15.8154 146.515) rotate(-121.815)"/>
</clipPath>
</defs>
</svg>
